<?xml version="1.0" encoding="UTF-8"?>
<svg version="1.1" xmlns="http://www.w3.org/2000/svg" width="500" height="500">
<path d="M0 0 C2.9228058 0.73070145 5.04217996 1.38164749 7.6875 2.63671875 C8.72559814 3.12676392 8.72559814 3.12676392 9.78466797 3.62670898 C10.88125732 4.15180054 10.88125732 4.15180054 12 4.6875 C12.76328613 5.04980713 13.52657227 5.41211426 14.31298828 5.78540039 C19.48535905 8.24965239 24.61331055 10.79426245 29.7265625 13.37890625 C33.87523189 15.43343823 38.06136931 17.4035373 42.25 19.375 C50.2424351 23.14125063 58.16156659 27.03407572 66.04833984 31.01611328 C68.6103611 32.30770018 71.1766452 33.59067087 73.7434082 34.87280273 C82.49715866 39.24541616 91.24795692 43.62397846 100 48 C100 68.13 100 88.26 100 109 C84.25528765 116.87235618 84.25528765 116.87235618 76.625 120.4375 C66.85107534 125.03687789 57.20143353 129.86404782 47.5625 134.73828125 C40.11336539 138.48871361 32.611419 142.10239145 25.06103516 145.64404297 C21.28465305 147.42084874 17.52844039 149.22080139 13.81640625 151.12890625 C12.85927734 151.62003906 12.85927734 151.62003906 11.8828125 152.12109375 C10.17980778 153.00183224 8.48226608 153.89311163 6.78515625 154.78515625 C4 156 4 156 0 156 C0 136.2 0 116.4 0 96 C5.28 93.36 10.56 90.72 16 88 C19.50785717 86.17898125 23.00947467 84.35306687 26.5 82.5 C27.33402344 82.05914062 28.16804688 81.61828125 29.02734375 81.1640625 C31.01907685 80.11096224 33.0099671 79.05630842 35 78 C34.36610352 77.69819824 33.73220703 77.39639648 33.07910156 77.08544922 C30.13550224 75.68314972 27.19274997 74.27908095 24.25 72.875 C23.25355469 72.400625 22.25710938 71.92625 21.23046875 71.4375 C20.23144531 70.96054688 19.23242188 70.48359375 18.203125 69.9921875 C17.30239258 69.56276855 16.40166016 69.13334961 15.47363281 68.69091797 C10.29477926 66.16992136 5.15177235 63.57588618 0 61 C0 40.87 0 20.74 0 0 Z " fill="#C41B1B" transform="translate(261,125)"/>
<path d="M0 0 C0.18557636 7.73629326 0.3276112 15.47206303 0.41449738 23.21002483 C0.45620637 26.80349663 0.51274245 30.39544327 0.60351562 33.98803711 C0.69061568 37.45707406 0.73830643 40.92464724 0.75901794 44.39469337 C0.78093853 46.35881023 0.84336805 48.32233976 0.90637207 50.28556824 C0.91074376 58.97375778 0.91074376 58.97375778 -1.65789795 61.8681488 C-3.72756965 63.19666497 -5.70425048 64.12876997 -8 65 C-8.88461914 65.44947998 -9.76923828 65.89895996 -10.68066406 66.36206055 C-11.45120117 66.70019775 -12.22173828 67.03833496 -13.015625 67.38671875 C-14.30339844 67.9580957 -14.30339844 67.9580957 -15.6171875 68.54101562 C-16.48601562 68.91935547 -17.35484375 69.29769531 -18.25 69.6875 C-20.00548874 70.461604 -21.76070739 71.23632086 -23.515625 72.01171875 C-24.28165039 72.34647217 -25.04767578 72.68122559 -25.83691406 73.02612305 C-27.92122126 73.96453178 -29.96329772 74.96285476 -32 76 C-29.85730532 77.17271208 -27.71097787 78.33795748 -25.5625 79.5 C-24.98951172 79.81453125 -24.41652344 80.1290625 -23.82617188 80.453125 C-16.02892846 84.65474839 -8.05244442 88.21061439 0 92 C0.33 111.8 0.66 131.6 1 152 C-3.71719781 153.17929945 -5.64535849 152.12361984 -9.75 150.0625 C-10.40685791 149.744021 -11.06371582 149.42554199 -11.74047852 149.09741211 C-13.83357847 148.07777306 -15.9172702 147.04063684 -18 146 C-19.32673724 145.3435768 -20.65355885 144.68732411 -21.98046875 144.03125 C-27.18217158 141.44874844 -32.36398236 138.82701773 -37.546875 136.20703125 C-46.48314694 131.70425857 -55.48441937 127.3411156 -64.5 123 C-80.89215618 115.10534334 -80.89215618 115.10534334 -88.625 111.25 C-89.25083984 110.93933594 -89.87667969 110.62867188 -90.52148438 110.30859375 C-93.14149077 108.99408882 -95.55469355 107.6302043 -98 106 C-98.36076355 103.48165894 -98.36076355 103.48165894 -98.34057617 100.26513672 C-98.34034958 99.06404266 -98.34012299 97.86294861 -98.33988953 96.62545776 C-98.32440567 95.32335358 -98.30892181 94.02124939 -98.29296875 92.6796875 C-98.28737416 91.33733595 -98.28310341 89.99497827 -98.28010559 88.65261841 C-98.26864585 85.11789059 -98.23916959 81.58353202 -98.20599365 78.0489502 C-98.17531671 74.44284053 -98.16160538 70.83667126 -98.14648438 67.23046875 C-98.11430052 60.15349468 -98.06309094 53.07677143 -98 46 C-96.83082031 45.45730469 -95.66164062 44.91460937 -94.45703125 44.35546875 C-92.90878763 43.63295506 -91.36061424 42.91029087 -89.8125 42.1875 C-89.04357422 41.83107422 -88.27464844 41.47464844 -87.48242188 41.10742188 C-83.51472505 39.25128903 -79.73311882 37.30218872 -76 35 C-74.31588641 34.26092857 -72.63064445 33.52390144 -70.93261719 32.81738281 C-67.28276022 31.2737091 -63.70780266 29.56721765 -60.125 27.875 C-59.29782471 27.48465576 -58.47064941 27.09431152 -57.6184082 26.69213867 C-52.05837568 24.04336781 -46.60525938 21.23982265 -41.1875 18.3125 C-35.10713246 15.02973162 -28.96537906 12.18448035 -22.5703125 9.55078125 C-17.6828145 7.42787457 -12.95866897 5.01183069 -8.23999023 2.53881836 C-3.31548859 0 -3.31548859 0 0 0 Z " fill="#CF8A89" transform="translate(236,127)"/>
<path d="M0 0 C0.18557636 7.73629326 0.3276112 15.47206303 0.41449738 23.21002483 C0.45620637 26.80349663 0.51274245 30.39544327 0.60351562 33.98803711 C0.69061568 37.45707406 0.73830643 40.92464724 0.75901794 44.39469337 C0.78093853 46.35881023 0.84336805 48.32233976 0.90637207 50.28556824 C0.91074376 58.97375778 0.91074376 58.97375778 -1.65789795 61.8681488 C-3.72756965 63.19666497 -5.70425048 64.12876997 -8 65 C-8.88461914 65.44947998 -9.76923828 65.89895996 -10.68066406 66.36206055 C-11.45120117 66.70019775 -12.22173828 67.03833496 -13.015625 67.38671875 C-14.30339844 67.9580957 -14.30339844 67.9580957 -15.6171875 68.54101562 C-16.48601562 68.91935547 -17.35484375 69.29769531 -18.25 69.6875 C-20.00548874 70.461604 -21.76070739 71.23632086 -23.515625 72.01171875 C-24.28165039 72.34647217 -25.04767578 72.68122559 -25.83691406 73.02612305 C-27.92122126 73.96453178 -29.96329772 74.96285476 -32 76 C-31.01 76.99 -30.02 77.98 -29 79 C-29.99 79.66 -30.98 80.32 -32 81 C-32.99 80.175 -33.98 79.35 -35 78.5 C-44.55557221 71.34591606 -56.28212554 66.80631202 -67.06420898 61.78955078 C-70.25584806 60.30388861 -73.41850837 58.78891025 -76.5625 57.203125 C-82.98340917 54.01527925 -89.50383384 51.03154421 -96 48 C-96.33 67.14 -96.66 86.28 -97 106 C-97.33 106 -97.66 106 -98 106 C-98 86.2 -98 66.4 -98 46 C-92.39 43.36 -86.78 40.72 -81 38 C-79.35 37.01 -77.7 36.02 -76 35 C-74.31588641 34.26092857 -72.63064445 33.52390144 -70.93261719 32.81738281 C-67.28276022 31.2737091 -63.70780266 29.56721765 -60.125 27.875 C-59.29782471 27.48465576 -58.47064941 27.09431152 -57.6184082 26.69213867 C-52.05837568 24.04336781 -46.60525938 21.23982265 -41.1875 18.3125 C-35.10713246 15.02973162 -28.96537906 12.18448035 -22.5703125 9.55078125 C-17.6828145 7.42787457 -12.95866897 5.01183069 -8.23999023 2.53881836 C-3.31548859 0 -3.31548859 0 0 0 Z " fill="#C01717" transform="translate(236,127)"/>
<path d="M0 0 C2.9228058 0.73070145 5.04217996 1.38164749 7.6875 2.63671875 C8.37980713 2.96349609 9.07211426 3.29027344 9.78540039 3.62695312 C10.51621826 3.97693359 11.24703613 4.32691406 12 4.6875 C13.14166626 5.22987305 13.14166626 5.22987305 14.30639648 5.78320312 C19.52954425 8.27330205 24.72730983 10.80976457 29.8828125 13.4375 C32.28181396 14.640007 34.68796379 15.79904459 37.1171875 16.9375 C37.83253662 17.27910156 38.54788574 17.62070313 39.28491211 17.97265625 C40.67870664 18.6378584 42.07773016 19.29225739 43.48266602 19.93359375 C48.22642783 22.22266214 50.87168082 24.75657668 54 29 C53.67 29.66 53.34 30.32 53 31 C53.99 30.67 54.98 30.34 56 30 C56.495 31.485 56.495 31.485 57 33 C57.556875 32.814375 58.11375 32.62875 58.6875 32.4375 C61.399133 31.92448835 63.34371039 32.3359276 66 33 C66 33.66 66 34.32 66 35 C68.64 35.66 71.28 36.32 74 37 C74.495 38.98 74.495 38.98 75 41 C76.485 41.495 76.485 41.495 78 42 C78.33 41.67 78.66 41.34 79 41 C80.67542976 41.28604898 82.34385343 41.61781233 84 42 C84 42.66 84 43.32 84 44 C84.86625 44.185625 84.86625 44.185625 85.75 44.375 C88.02335767 45.00648824 89.9253529 45.88858191 92 47 C90.125 51.875 90.125 51.875 89 53 C87.33382885 53.04063832 85.66611905 53.042721 84 53 C84 53.66 84 54.32 84 55 C82.1746875 55.5878125 82.1746875 55.5878125 80.3125 56.1875 C77.33306265 57.29830068 75.99131705 58.00868295 73.6875 60.3125 C67.88884021 66.11115979 59.9994822 69.1398008 52.41796875 71.984375 C49.10591264 73.37554558 46.12720483 75.21130048 43.10546875 77.14453125 C40.33626343 78.26968146 38.84518963 77.79771672 36 77 C34.95392578 76.76603516 34.95392578 76.76603516 33.88671875 76.52734375 C25.35990976 74.24040208 17.79878103 70.03232428 10 66 C6.7 64.35 3.4 62.7 0 61 C0 40.87 0 20.74 0 0 Z " fill="#CF9D9D" transform="translate(261,125)"/>
<path d="M0 0 C5.07132337 1.54867945 9.73156719 3.65384808 14.5 5.9375 C15.23347656 6.28490234 15.96695313 6.63230469 16.72265625 6.99023438 C20.84148239 8.94649258 24.92022271 10.96011135 29 13 C29.33 32.8 29.66 52.6 30 73 C25.28280219 74.17929945 23.35464151 73.12361984 19.25 71.0625 C18.26471313 70.58478149 18.26471313 70.58478149 17.25952148 70.09741211 C15.16642153 69.07777306 13.0827298 68.04063684 11 67 C9.67326276 66.3435768 8.34644115 65.68732411 7.01953125 65.03125 C2.3393477 62.70764386 -2.32435543 60.35162104 -6.98828125 57.99560547 C-17.24509589 52.81915094 -27.58351487 47.84727526 -38 43 C-34.3299081 41.94345839 -31.74408569 42.10467516 -28 43 C-27.34 43.66 -26.68 44.32 -26 45 C-25.67 44.34 -25.34 43.68 -25 43 C-25 43.66 -25 44.32 -25 45 C-22.03 44.505 -22.03 44.505 -19 44 C-18.67 45.65 -18.34 47.3 -18 49 C-17.01 48.505 -17.01 48.505 -16 48 C-16 48.99 -16 49.98 -16 51 C-12.37 51.33 -8.74 51.66 -5 52 C-4.67 52.99 -4.34 53.98 -4 55 C-3.67 55.66 -3.34 56.32 -3 57 C-2.113125 57.144375 -1.22625 57.28875 -0.3125 57.4375 C3.29111334 58.04943434 5.85085514 59.16910182 9 61 C9.33 61.66 9.66 62.32 10 63 C10.66 63 11.32 63 12 63 C12 63.66 12 64.32 12 65 C14.64 65.33 17.28 65.66 20 66 C20 66.66 20 67.32 20 68 C22.97 67.505 22.97 67.505 26 67 C25.835 65.989375 25.67 64.97875 25.5 63.9375 C24.70826851 57.70261455 24.69706264 52.90127699 27 47 C26.34 47 25.68 47 25 47 C24.95745644 45.00045254 24.95919217 42.99958364 25 41 C25.33 40.67 25.66 40.34 26 40 C26.09873816 38.00200428 26.12971799 36.00042842 26.125 34 C26.12757813 32.906875 26.13015625 31.81375 26.1328125 30.6875 C26.30547755 28.08169646 26.30547755 28.08169646 25 27 C24.95907063 24.66702567 24.95758277 22.33294775 25 20 C25.66 20 26.32 20 27 20 C26.34 19.34 25.68 18.68 25 18 C24.01 18 23.02 18 22 18 C21.77054688 17.23300781 21.54109375 16.46601563 21.3046875 15.67578125 C19.70196972 12.38877023 18.39715495 11.71677123 15.125 10.1875 C14.26132813 9.76855469 13.39765625 9.34960938 12.5078125 8.91796875 C9.81904667 7.77084077 9.81904667 7.77084077 6 8 C5.34 6.68 4.68 5.36 4 4 C3.01 4 2.02 4 1 4 C0.505 2.02 0.505 2.02 0 0 Z " fill="#B71D1D" transform="translate(207,206)"/>
<path d="M0 0 C3.3 0 6.6 0 10 0 C11.98 3.96 13.96 7.92 16 12 C17.65 8.04 19.3 4.08 21 0 C24.3 0 27.6 0 31 0 C31 0.66 31 1.32 31 2 C30.01 2.495 30.01 2.495 29 3 C28.68758545 5.71446979 28.48663408 8.33909361 28.375 11.0625 C28.33632813 11.82111328 28.29765625 12.57972656 28.2578125 13.36132812 C28.16326438 15.24047195 28.08053244 17.12020336 28 19 C28.99 19.33 29.98 19.66 31 20 C31 20.66 31 21.32 31 22 C27.04 22 23.08 22 19 22 C19 21.01 19 20.02 19 19 C19.99 19 20.98 19 22 19 C21.67 16.69 21.34 14.38 21 12 C19.68 15.3 18.36 18.6 17 22 C15.35 21.67 13.7 21.34 12 21 C10.63671875 18.93359375 10.63671875 18.93359375 9.6875 16.4375 C9.36136719 15.61121094 9.03523438 14.78492188 8.69921875 13.93359375 C8.46847656 13.29550781 8.23773438 12.65742188 8 12 C7.67 14.31 7.34 16.62 7 19 C7.99 19 8.98 19 10 19 C10 19.99 10 20.98 10 22 C6.7 22 3.4 22 0 22 C0.495 20.515 0.495 20.515 1 19 C1.66 19 2.32 19 3 19 C2.88660796 16.35319096 2.75987127 13.70822482 2.625 11.0625 C2.5940625 10.30775391 2.563125 9.55300781 2.53125 8.77539062 C2.4273685 6.84492605 2.22104386 4.92057919 2 3 C1.34 2.67 0.68 2.34 0 2 C0 1.34 0 0.68 0 0 Z " fill="#C8C8C8" transform="translate(328,299)"/>
<path d="M0 0 C2.43757413 -0.02698422 4.87484915 -0.04683099 7.3125 -0.0625 C8.00279297 -0.07087891 8.69308594 -0.07925781 9.40429688 -0.08789062 C12.5483025 -0.10307906 14.99420019 -0.00193327 18 1 C20 4 20 4 19.625 7.1875 C19.315625 8.5796875 19.315625 8.5796875 19 10 C18.01 10.33 17.02 10.66 16 11 C18.11761724 15.01232741 20.4566386 17.22277079 24 20 C24 20.66 24 21.32 24 22 C21.03 22 18.06 22 15 22 C15 21.34 15 20.68 15 20 C14.34 20 13.68 20 13 20 C11.375 18 11.375 18 10 16 C9.67 16.99 9.34 17.98 9 19 C9.99 19.33 10.98 19.66 12 20 C12 20.66 12 21.32 12 22 C8.04 22 4.08 22 0 22 C0.495 20.515 0.495 20.515 1 19 C1.09644305 16.32228714 1.1392892 13.67684323 1.125 11 C1.12886719 10.27554687 1.13273438 9.55109375 1.13671875 8.8046875 C1.13081927 5.60717121 1.01805798 3.05417393 0 0 Z M9 3 C9 4.98 9 6.96 9 9 C10.32 8.67 11.64 8.34 13 8 C13 6.68 13 5.36 13 4 C11.68 3.67 10.36 3.34 9 3 Z " fill="#F9F9F9" transform="translate(141,299)"/>
<path d="M0 0 C0.33 0 0.66 0 1 0 C1 20.13 1 40.26 1 61 C-14.74471235 68.87235618 -14.74471235 68.87235618 -22.375 72.4375 C-32.30497159 77.11030989 -42.11725123 82.00113201 -51.89453125 86.984375 C-52.52254639 87.3026123 -53.15056152 87.62084961 -53.79760742 87.94873047 C-55.50477948 88.81406257 -57.20951612 89.6841947 -58.9140625 90.5546875 C-61.89784667 91.95215603 -64.85504618 93.0272365 -68 94 C-67.67 93.01 -67.34 92.02 -67 91 C-64.03 90.505 -64.03 90.505 -61 90 C-60.67 89.01 -60.34 88.02 -60 87 C-58.01363702 86.29373761 -56.01151741 85.63106429 -54 85 C-52.63266972 84.04701223 -51.29735507 83.04625409 -50 82 C-47.01611889 79.98149219 -44.03492413 78.59091323 -40.6875 77.3125 C-36.02685111 75.49963955 -31.58581137 73.3738475 -27.125 71.125 C-26.44034668 70.77985352 -25.75569336 70.43470703 -25.05029297 70.07910156 C-21.85334045 68.46056392 -18.66474412 66.82697671 -15.48046875 65.18359375 C-14.43503906 64.64863281 -13.38960938 64.11367187 -12.3125 63.5625 C-11.40113281 63.08941406 -10.48976563 62.61632812 -9.55078125 62.12890625 C-7 61 -7 61 -2 60 C-2 40.86 -2 21.72 -2 2 C-1.34 2 -0.68 2 0 2 C0 1.34 0 0.68 0 0 Z " fill="#8B0A0B" transform="translate(360,173)"/>
<path d="M0 0 C3.59897774 1.71769392 6.16058335 3.41797811 8 7 C8.5245846 11.72126138 8.72641982 13.84774787 6.1875 17.875 C2.64301309 21.31821586 0.48709799 22.30839592 -4.375 22.375 C-7.89915338 22.28654701 -9.83526877 22.07732282 -13.0625 20.5625 C-15.80273464 16.9383187 -16.81896884 13.53365 -17 9 C-15.77714233 5.11562857 -14.75447381 3.53365221 -11.4375 1.1875 C-10.633125 0.795625 -9.82875 0.40375 -9 0 C-5.84760408 -1.57619796 -3.38428252 -0.68832865 0 0 Z M-9 5 C-10.30202563 9.19450029 -10.38438033 12.95363133 -8.875 17.0625 C-7.1451441 19.21721892 -7.1451441 19.21721892 -4.5 19.5 C-1.57513025 18.91502605 -0.81736487 18.31442193 1 16 C1.62288228 12.95292722 1.50857852 10.06252715 1 7 C-0.62724946 4.36861794 -0.62724946 4.36861794 -3 3 C-6.18490007 2.7226499 -6.18490007 2.7226499 -9 5 Z " fill="#CACACA" transform="translate(196,299)"/>
<path d="M0 0 C-0.33 0.99 -0.66 1.98 -1 3 C-1.99 3 -2.98 3 -4 3 C-4 3.66 -4 4.32 -4 5 C-4.50789063 5.24234375 -5.01578125 5.4846875 -5.5390625 5.734375 C-9.93547932 7.87495248 -13.95195661 10.23997042 -18 13 C-18.763125 13.2475 -19.52625 13.495 -20.3125 13.75 C-22.41128475 15.00413897 -22.41128475 15.00413897 -22.6015625 18.46606445 C-23.10490742 23.24577723 -23.108735 27.99179462 -23.0625 32.79296875 C-23.05871338 33.70202469 -23.05492676 34.61108063 -23.05102539 35.54768372 C-23.03889827 38.42767281 -23.02026599 41.3075574 -23 44.1875 C-22.97336475 47.99348692 -22.95340408 51.79942356 -22.9375 55.60546875 C-22.92920166 56.47326462 -22.92090332 57.34106049 -22.91235352 58.2351532 C-22.8958891 62.29576413 -22.97250622 66.03818221 -24 70 C-23.01 70 -22.02 70 -21 70 C-21 69.34 -21 68.68 -21 68 C-19.68 68 -18.36 68 -17 68 C-17 67.34 -17 66.68 -17 66 C-16.01 66 -15.02 66 -14 66 C-14 65.34 -14 64.68 -14 64 C-12.35 64.33 -10.7 64.66 -9 65 C-11.6046194 66.73641293 -14.15872396 68.19591518 -16.9375 69.625 C-17.79214844 70.07101562 -18.64679688 70.51703125 -19.52734375 70.9765625 C-22 72 -22 72 -26 72 C-26 52.2 -26 32.4 -26 12 C-2 0 -2 0 0 0 Z " fill="#A93F3E" transform="translate(287,209)"/>
<path d="M0 0 C3.63 0 7.26 0 11 0 C11 0.66 11 1.32 11 2 C10.01 2.495 10.01 2.495 9 3 C8.49161337 5.48221846 8.49161337 5.48221846 8.3125 8.375 C8.22613281 9.35210937 8.13976562 10.32921875 8.05078125 11.3359375 C7.84952156 14.10564877 7.84952156 14.10564877 9 17 C10.91666667 17.83333333 10.91666667 17.83333333 13 18 C13.66 17.67 14.32 17.34 15 17 C15.47001033 13.72444392 15.47001033 13.72444392 15.625 9.9375 C15.69976562 8.64714844 15.77453125 7.35679687 15.8515625 6.02734375 C15.90054687 5.02832031 15.94953125 4.02929688 16 3 C15.01 2.67 14.02 2.34 13 2 C13 1.34 13 0.68 13 0 C16.3 0 19.6 0 23 0 C22.690625 1.11375 22.38125 2.2275 22.0625 3.375 C21.00828599 7.53246369 20.57000721 11.6280682 20.24609375 15.8984375 C20 18 20 18 19 20 C18.34 20 17.68 20 17 20 C17 20.66 17 21.32 17 22 C15.06372231 22.10807131 13.12572244 22.1856225 11.1875 22.25 C9.56908203 22.31960938 9.56908203 22.31960938 7.91796875 22.390625 C5 22 5 22 3.125 20.46875 C1.57397971 17.06512214 1.67765024 13.90823196 1.8125 10.25 C1.82603516 9.55261719 1.83957031 8.85523438 1.85351562 8.13671875 C1.8887055 6.42414459 1.94250845 4.71197059 2 3 C1.01 2.67 0.02 2.34 -1 2 C-0.67 1.34 -0.34 0.68 0 0 Z " fill="#C5C5C5" transform="translate(289,299)"/>
<path d="M0 0 C1.22589844 0.15275391 1.22589844 0.15275391 2.4765625 0.30859375 C3.41628906 0.43427734 3.41628906 0.43427734 4.375 0.5625 C4.375 2.8725 4.375 5.1825 4.375 7.5625 C3.385 7.5625 2.395 7.5625 1.375 7.5625 C0.715 6.5725 0.055 5.5825 -0.625 4.5625 C-1.615 4.5625 -2.605 4.5625 -3.625 4.5625 C-3.625 5.2225 -3.625 5.8825 -3.625 6.5625 C-3.07070313 6.81644531 -2.51640625 7.07039063 -1.9453125 7.33203125 C-1.22085937 7.67621094 -0.49640625 8.02039063 0.25 8.375 C0.96929687 8.71144531 1.68859375 9.04789062 2.4296875 9.39453125 C4.375 10.5625 4.375 10.5625 6.375 13.5625 C6.1875 17.125 6.1875 17.125 5.375 20.5625 C1.74304504 22.98380331 -0.00849348 22.77272785 -4.3125 22.6875 C-5.49199219 22.66945313 -6.67148437 22.65140625 -7.88671875 22.6328125 C-8.79035156 22.60960937 -9.69398438 22.58640625 -10.625 22.5625 C-10.625 19.9225 -10.625 17.2825 -10.625 14.5625 C-9.635 14.5625 -8.645 14.5625 -7.625 14.5625 C-7.17125 15.201875 -6.7175 15.84125 -6.25 16.5 C-4.7587227 18.81014553 -4.7587227 18.81014553 -1.9375 19.3125 C-1.174375 19.395 -0.41125 19.4775 0.375 19.5625 C0.375 18.2425 0.375 16.9225 0.375 15.5625 C-1.23375 15.2221875 -1.23375 15.2221875 -2.875 14.875 C-7.04752262 13.41461708 -8.48719435 12.39273512 -10.625 8.5625 C-10.55321445 5.54750702 -10.09778442 4.13806364 -8.1875 1.8125 C-5.24804263 -0.5390659 -3.6488411 -0.46913671 0 0 Z " fill="#CACACA" transform="translate(265.625,298.4375)"/>
<path d="M0 0 C0 2.31 0 4.62 0 7 C-0.99 7 -1.98 7 -3 7 C-3.66 6.01 -4.32 5.02 -5 4 C-7.58380177 3.74969023 -7.58380177 3.74969023 -10 4 C-10 4.66 -10 5.32 -10 6 C-9.38511719 6.17015625 -8.77023438 6.3403125 -8.13671875 6.515625 C-1.65782874 8.45825869 -1.65782874 8.45825869 1.125 10.75 C2.43968647 14.13062235 1.89639865 16.54246233 1 20 C-2.52679099 22.35119399 -4.02879485 22.21443452 -8.1875 22.125 C-9.27417969 22.10695313 -10.36085937 22.08890625 -11.48046875 22.0703125 C-12.72763672 22.03550781 -12.72763672 22.03550781 -14 22 C-14.33 19.36 -14.66 16.72 -15 14 C-14.01 14 -13.02 14 -12 14 C-10.3125 16 -10.3125 16 -9 18 C-7.35 17.67 -5.7 17.34 -4 17 C-6.88179506 14.75860384 -9.86398863 12.86465541 -13 11 C-14 10 -14 10 -14.375 6.125 C-14.31279543 2.97518683 -14.29851291 2.31777181 -12.0625 -0.0625 C-7.84177322 -1.35455922 -4.29018635 -0.77578533 0 0 Z " fill="#CECECE" transform="translate(236,299)"/>
<path d="M0 0 C4.69507211 1.42799428 8.9647978 3.38181101 13.3125 5.625 C19.12254907 8.57902003 24.96820377 11.43196241 30.875 14.1875 C36.96575026 17.03104818 43.01377577 19.94070113 49 23 C49 23.99 49 24.98 49 26 C44.05 27.485 44.05 27.485 39 29 C39.66 27.02 40.32 25.04 41 23 C37.91190305 21.23537317 36.76687864 21 33 21 C32.505 20.01 32.505 20.01 32 19 C31.01 19 30.02 19 29 19 C27.32900023 18.68911632 25.66128463 18.35919668 24 18 C24 16.35 24 14.7 24 13 C23.05125 12.855625 22.1025 12.71125 21.125 12.5625 C18 12 18 12 16 11 C16 10.34 16 9.68 16 9 C12.05272412 8.82057837 9.4019487 8.90649311 6 11 C5 8 5 8 5 7 C4.34 7 3.68 7 3 7 C1.79371992 4.66785852 0.8345262 2.50357861 0 0 Z " fill="#AF3B3B" transform="translate(311,149)"/>
<path d="M0 0 C3.3 0 6.6 0 10 0 C10 0.66 10 1.32 10 2 C9.01 2.495 9.01 2.495 8 3 C7.68758545 5.71446979 7.48663408 8.33909361 7.375 11.0625 C7.31699219 12.20041992 7.31699219 12.20041992 7.2578125 13.36132812 C7.16326438 15.24047195 7.08053244 17.12020336 7 19 C7.99 19.33 8.98 19.66 10 20 C10 20.66 10 21.32 10 22 C6.04 22 2.08 22 -2 22 C-2 21.01 -2 20.02 -2 19 C-1.01 19 -0.02 19 1 19 C0.67 16.36 0.34 13.72 0 11 C-0.66 11 -1.32 11 -2 11 C-2.17700355 6.39790775 -2.10814567 4.21629134 0 0 Z " fill="#D7D7D7" transform="translate(349,299)"/>
<path d="M0 0 C3.1921126 0.79802815 5.98155093 1.74231289 9 3 C8.67 5.31 8.34 7.62 8 10 C5.03 9.505 5.03 9.505 2 9 C2.09211234 16.08439109 2.19939662 23.16843426 2.31738281 30.25244141 C2.35573647 32.66384628 2.3905779 35.07530962 2.421875 37.48681641 C2.46738703 40.94715313 2.52540404 44.40708508 2.5859375 47.8671875 C2.60326431 49.49223709 2.60326431 49.49223709 2.62094116 51.15011597 C2.64081085 52.1510025 2.66068054 53.15188904 2.68115234 54.18310547 C2.69447601 55.06690887 2.70779968 55.95071228 2.7215271 56.86129761 C2.80669004 59.2132825 2.80669004 59.2132825 5 61 C3.35 61 1.7 61 0 61 C0 40.87 0 20.74 0 0 Z " fill="#999697" transform="translate(261,125)"/>
<path d="M0 0 C1.62580966 0.11398665 3.25067157 0.24155659 4.875 0.375 C5.77992188 0.44460937 6.68484375 0.51421875 7.6171875 0.5859375 C10 1 10 1 12 3 C12.33 2.34 12.66 1.68 13 1 C13 1.66 13 2.32 13 3 C14.98 2.67 16.96 2.34 19 2 C19.33 3.65 19.66 5.3 20 7 C20.66 6.67 21.32 6.34 22 6 C22 6.99 22 7.98 22 9 C27.445 9.495 27.445 9.495 33 10 C33.495 11.485 33.495 11.485 34 13 C34.495 13.99 34.495 13.99 35 15 C35.886875 15.144375 36.77375 15.28875 37.6875 15.4375 C41.29111334 16.04943434 43.85085514 17.16910182 47 19 C47.495 19.99 47.495 19.99 48 21 C42.34156579 21.39899216 38.62039295 20.2392859 33.75 17.5625 C32.35272074 16.82851998 30.95422651 16.09684945 29.5546875 15.3671875 C28.82088867 14.98143555 28.08708984 14.59568359 27.33105469 14.19824219 C23.22922111 12.08975882 19.05075207 10.14432591 14.875 8.1875 C9.88783523 5.84539692 4.91607608 3.48945067 0 1 C0 0.67 0 0.34 0 0 Z " fill="#9E3A3F" transform="translate(169,248)"/>
<path d="M0 0 C5.13043439 1.56604675 9.85797641 3.69983001 14.6875 6 C15.44611328 6.35578125 16.20472656 6.7115625 16.98632812 7.078125 C20.16373015 8.58129136 23.06508103 10.04338735 26 12 C26 12.66 26 13.32 26 14 C26.66 14 27.32 14 28 14 C28 23.24 28 32.48 28 42 C27.67 42 27.34 42 27 42 C26.93941406 41.00097656 26.87882812 40.00195312 26.81640625 38.97265625 C26.73261719 37.68230469 26.64882812 36.39195312 26.5625 35.0625 C26.48128906 33.77472656 26.40007812 32.48695313 26.31640625 31.16015625 C26.35080812 28.13976043 26.35080812 28.13976043 25 27 C24.95907063 24.66702567 24.95758277 22.33294775 25 20 C25.66 20 26.32 20 27 20 C26.34 19.34 25.68 18.68 25 18 C24.01 18 23.02 18 22 18 C21.77054688 17.23300781 21.54109375 16.46601563 21.3046875 15.67578125 C19.70196972 12.38877023 18.39715495 11.71677123 15.125 10.1875 C14.26132813 9.76855469 13.39765625 9.34960938 12.5078125 8.91796875 C9.81904667 7.77084077 9.81904667 7.77084077 6 8 C5.34 6.68 4.68 5.36 4 4 C3.01 4 2.02 4 1 4 C0.67 2.68 0.34 1.36 0 0 Z " fill="#964C4C" transform="translate(207,206)"/>
<path d="M0 0 C2.0625 0.4375 2.0625 0.4375 4 1 C4 2.32 4 3.64 4 5 C5.65 5 7.3 5 9 5 C9.33 3.35 9.66 1.7 10 0 C11.32 0.33 12.64 0.66 14 1 C14 5.29 14 9.58 14 14 C12.35 14 10.7 14 9 14 C9 12.35 9 10.7 9 9 C7.35 9 5.7 9 4 9 C4 10.65 4 12.3 4 14 C2.35 14 0.7 14 -1 14 C-1.02685938 11.85423363 -1.04633088 9.70837355 -1.0625 7.5625 C-1.07410156 6.36753906 -1.08570313 5.17257812 -1.09765625 3.94140625 C-1 1 -1 1 0 0 Z " fill="#ACADAD" transform="translate(339,329)"/>
<path d="M0 0 C0.99 0 1.98 0 3 0 C3 0.99 3 1.98 3 3 C3.66 3 4.32 3 5 3 C5 3.66 5 4.32 5 5 C5.66 5 6.32 5 7 5 C7.66 3.35 8.32 1.7 9 0 C10.32 0.33 11.64 0.66 13 1 C13 4.63 13 8.26 13 12 C11.35 11.67 9.7 11.34 8 11 C6.32457024 11.28604898 4.65614657 11.61781233 3 12 C1.68 12 0.36 12 -1 12 C-1.02687279 10.18757948 -1.04633715 8.37504767 -1.0625 6.5625 C-1.07410156 5.55316406 -1.08570313 4.54382813 -1.09765625 3.50390625 C-1 1 -1 1 0 0 Z " fill="#717271" transform="translate(277,331)"/>
<path d="M0 0 C1.423125 -0.061875 2.84625 -0.12375 4.3125 -0.1875 C5.51326172 -0.23970703 5.51326172 -0.23970703 6.73828125 -0.29296875 C9 0 9 0 10.77734375 1.2890625 C12.7610536 4.06498874 12.23965852 6.70469532 12 10 C11.67 10.66 11.34 11.32 11 12 C7.37 12 3.74 12 0 12 C0 8.04 0 4.08 0 0 Z " fill="#DCDEDE" transform="translate(371,331)"/>
<path d="M0 0 C0.99 0.33 1.98 0.66 3 1 C3.6875 3.0625 3.6875 3.0625 4 5 C4.66 5 5.32 5 6 5 C6.66 3.35 7.32 1.7 8 0 C9.32 0.33 10.64 0.66 12 1 C12 4.63 12 8.26 12 12 C10.35 11.67 8.7 11.34 7 11 C5.33178677 11.32550502 3.66500443 11.65846063 2 12 C0.68 11.67 -0.64 11.34 -2 11 C-2 7.7 -2 4.4 -2 1 C-1.34 0.67 -0.68 0.34 0 0 Z " fill="#838484" transform="translate(261,331)"/>
<path d="M0 0 C0 0.66 0 1.32 0 2 C-2.31 2 -4.62 2 -7 2 C-9.25433614 7.56069582 -9.59961828 13.0785651 -10 19 C-11.65 18.67 -13.3 18.34 -15 18 C-16.39042379 13.49862802 -17.38121479 10.21091758 -15.9375 5.625 C-13.85029797 2.79717789 -12.13726368 1.52841051 -9 0 C-5.93109813 -1.53445094 -3.29905734 -0.54984289 0 0 Z " fill="#D6D6D6" transform="translate(196,299)"/>
<path d="M0 0 C-0.98978029 2.53531958 -1.60182036 3.76766335 -3.98828125 5.16015625 C-5.13876953 5.60681641 -5.13876953 5.60681641 -6.3125 6.0625 C-8.8500976 7.09767871 -11.09815676 8.06040416 -13.4375 9.5 C-15.90778883 10.94602273 -18.26881255 11.9168859 -20.9375 12.9375 C-28.17972748 15.72399604 -28.17972748 15.72399604 -33.375 21.25 C-33.58125 21.8275 -33.7875 22.405 -34 23 C-35.65 22.67 -37.3 22.34 -39 22 C-39.33 20.68 -39.66 19.36 -40 18 C-38.9584375 17.5153125 -37.916875 17.030625 -36.84375 16.53125 C-28.59041461 12.67620124 -20.38502566 8.74993425 -12.26757812 4.61523438 C-3.16030865 0 -3.16030865 0 0 0 Z " fill="#930708" transform="translate(182,153)"/>
<path d="M0 0 C0.79148438 -0.01417969 1.58296875 -0.02835937 2.3984375 -0.04296875 C4.625 0.1875 4.625 0.1875 7.625 2.1875 C7.9375 4.6875 7.9375 4.6875 7.625 7.1875 C5.625 9.1875 5.625 9.1875 2.5 9.3125 C1.55125 9.27125 0.6025 9.23 -0.375 9.1875 C-0.375 10.8375 -0.375 12.4875 -0.375 14.1875 C-2.025 14.1875 -3.675 14.1875 -5.375 14.1875 C-5.40185938 12.04173363 -5.42133088 9.89587355 -5.4375 7.75 C-5.44910156 6.55503906 -5.46070313 5.36007812 -5.47265625 4.12890625 C-5.32219474 -0.40299456 -4.12226626 0.03335167 0 0 Z M-0.375 4.1875 C3.625 5.1875 3.625 5.1875 3.625 5.1875 Z " fill="#6D6D6D" transform="translate(176.375,328.8125)"/>
<path d="M0 0 C3.33388318 0.16951948 4.94441987 0.43192871 7.6875 2.1875 C7.6875 4.52083333 7.6875 6.85416667 7.6875 9.1875 C8.0175 10.1775 8.3475 11.1675 8.6875 12.1875 C6.3125 12.375 6.3125 12.375 3.6875 12.1875 C3.0275 11.1975 2.3675 10.2075 1.6875 9.1875 C0.6975 10.6725 0.6975 10.6725 -0.3125 12.1875 C-1.6325 12.1875 -2.9525 12.1875 -4.3125 12.1875 C-4.33937279 10.37507948 -4.35883715 8.56254767 -4.375 6.75 C-4.38660156 5.74066406 -4.39820313 4.73132813 -4.41015625 3.69140625 C-4.26130626 -0.12510742 -3.92006302 0.22189036 0 0 Z " fill="#D4D5D4" transform="translate(235.3125,330.8125)"/>
<path d="M0 0 C3.63 0 7.26 0 11 0 C11 1.32 11 2.64 11 4 C10.01 4.495 10.01 4.495 9 5 C9 5.99 9 6.98 9 8 C9.99 8.33 10.98 8.66 12 9 C12 9.99 12 10.98 12 12 C8.04 12 4.08 12 0 12 C0 8.04 0 4.08 0 0 Z " fill="#DDDDDD" transform="translate(149,331)"/>
<path d="M0 0 C0.66 0.33 1.32 0.66 2 1 C2 4.63 2 8.26 2 12 C-1.75291666 12.80945261 -4.26417115 13.25049493 -7.9375 12 C-10 10 -10 10 -10.5625 6.5 C-10 3 -10 3 -8.375 1.0625 C-5.40118254 -0.26789202 -3.2263676 -0.2805537 0 0 Z M-4 3 C-4.99 3.66 -5.98 4.32 -7 5 C-6.67 5.99 -6.34 6.98 -6 8 C-4.35 6.68 -2.7 5.36 -1 4 C-1.99 3.67 -2.98 3.34 -4 3 Z " fill="#8F8F8F" transform="translate(325,331)"/>
<path d="M0 0 C0.7940625 0.06703125 1.588125 0.1340625 2.40625 0.203125 C4.5 0.75 4.5 0.75 6.5 3.75 C6.15358161 7.21418389 5.46713413 8.79929881 3.5 11.75 C1.40625 12.078125 1.40625 12.078125 -1 12 C-2.19109375 11.97679687 -2.19109375 11.97679687 -3.40625 11.953125 C-5.5 11.75 -5.5 11.75 -7.5 10.75 C-8.33749185 7.60940555 -8.77719163 5.53893001 -7.6875 2.4375 C-5.51208573 -0.65387818 -3.50763685 -0.34165294 0 0 Z M-4.5 4.75 C-4.5 5.74 -4.5 6.73 -4.5 7.75 C-2.025 8.245 -2.025 8.245 0.5 8.75 C1.16 7.76 1.82 6.77 2.5 5.75 C1.52149805 4.72895449 0.52019573 3.7293879 -0.5 2.75 C-1.96225016 2.65754997 -1.96225016 2.65754997 -4.5 4.75 Z " fill="#A9A9A9" transform="translate(208.5,331.25)"/>
<path d="M0 0 C0.66 0.33 1.32 0.66 2 1 C2.99716532 4.98866127 3.0502717 8.0323069 2 12 C-2.40212852 13.02375082 -4.95051969 13.08258987 -9 11 C-10 10 -10 10 -10.3125 6.625 C-10 3 -10 3 -8.375 1.0625 C-5.40118254 -0.26789202 -3.2263676 -0.2805537 0 0 Z M-6 4 C-5.67 5.65 -5.34 7.3 -5 9 C-4.67 8.01 -4.34 7.02 -4 6 C-1.9375 4.8125 -1.9375 4.8125 0 4 C-3.04913228 2.98888907 -3.04913228 2.98888907 -6 4 Z " fill="#A5A5A5" transform="translate(226,331)"/>
<path d="M0 0 C2.83398763 0.09606738 5.02345099 0.27250432 7.6875 1.125 C7.6875 4.79166667 7.6875 8.45833333 7.6875 12.125 C6.3675 12.125 5.0475 12.125 3.6875 12.125 C3.0275 11.135 2.3675 10.145 1.6875 9.125 C1.3575 10.115 1.0275 11.105 0.6875 12.125 C-0.9625 12.125 -2.6125 12.125 -4.3125 12.125 C-4.33937279 10.31257948 -4.35883715 8.50004767 -4.375 6.6875 C-4.38660156 5.67816406 -4.39820313 4.66882813 -4.41015625 3.62890625 C-4.26113329 -0.19204233 -3.92642538 0.148167 0 0 Z " fill="#B7B7B7" transform="translate(190.3125,330.875)"/>
<path d="M0 0 C2 0 4 0 6 0 C6 2.31 6 4.62 6 7 C3.36 7 0.72 7 -2 7 C-2.33 6.01 -2.66 5.02 -3 4 C-3.33 7.63 -3.66 11.26 -4 15 C-3.34 15 -2.68 15 -2 15 C-2 15.66 -2 16.32 -2 17 C-6.875 16.125 -6.875 16.125 -8 15 C-8.12514928 13.02380553 -8.1757276 11.04261827 -8.1875 9.0625 C-8.20167969 7.98097656 -8.21585937 6.89945312 -8.23046875 5.78515625 C-8 3 -8 3 -6 1 C-4.33382885 0.95936168 -2.66611905 0.957279 -1 1 C-0.67 0.67 -0.34 0.34 0 0 Z " fill="#999999" transform="translate(110,328)"/>
<path d="M0 0 C3.83736322 0.95934081 4.59660228 1.23609263 7 4 C7.66 2.68 8.32 1.36 9 0 C9.99 0 10.98 0 12 0 C12 3.96 12 7.92 12 12 C10.35 11.67 8.7 11.34 7 11 C7 10.34 7 9.68 7 9 C6.34 9 5.68 9 5 9 C4.67 9.99 4.34 10.98 4 12 C2.68 12 1.36 12 0 12 C0 8.04 0 4.08 0 0 Z " fill="#A5A5A5" transform="translate(300,331)"/>
<path d="M0 0 C3.63 0 7.26 0 11 0 C11 0.66 11 1.32 11 2 C10.01 2.495 10.01 2.495 9 3 C8.53193355 5.33744294 8.17330206 7.69739079 7.875 10.0625 C7.62363281 11.99802734 7.62363281 11.99802734 7.3671875 13.97265625 C7.24601562 14.97167969 7.12484375 15.97070312 7 17 C5.35 17.33 3.7 17.66 2 18 C2 13.05 2 8.1 2 3 C1.01 2.67 0.02 2.34 -1 2 C-0.67 1.34 -0.34 0.68 0 0 Z " fill="#F4F4F4" transform="translate(289,299)"/>
<path d="M0 0 C0.99 0 1.98 0 3 0 C3 1.32 3 2.64 3 4 C4.32 4 5.64 4 7 4 C7.33 2.68 7.66 1.36 8 0 C9.32 0.33 10.64 0.66 12 1 C12 4.63 12 8.26 12 12 C10.35 12 8.7 12 7 12 C7 10.35 7 8.7 7 7 C5.68 7 4.36 7 3 7 C3 8.65 3 10.3 3 12 C1.68 11.67 0.36 11.34 -1 11 C-1.02688151 9.35425434 -1.04634123 7.70838587 -1.0625 6.0625 C-1.07410156 5.14597656 -1.08570313 4.22945313 -1.09765625 3.28515625 C-1 1 -1 1 0 0 Z " fill="#A5A5A6" transform="translate(134,331)"/>
<path d="M0 0 C0.65484375 0.30292969 1.3096875 0.60585937 1.984375 0.91796875 C7.01280838 3.22621853 12.0521941 5.43933585 17.1875 7.5 C22.1888119 9.56703503 26.5871686 11.86010073 31 15 C31 15.66 31 16.32 31 17 C28.39417629 17.93065133 27.35801776 18.14917407 24.75 17.0625 C23.88375 16.5365625 23.88375 16.5365625 23 16 C23 15.34 23 14.68 23 14 C22.34 14 21.68 14 21 14 C20.34 13.34 19.68 12.68 19 12 C17.14105846 11.07221139 17.14105846 11.07221139 15.0625 10.3125 C14.37285156 10.04050781 13.68320313 9.76851562 12.97265625 9.48828125 C10.80971069 8.76625896 10.80971069 8.76625896 8 10 C5.2160817 8.60804085 5.02101003 6.84424221 4 4 C3.34 4 2.68 4 2 4 C1.34 4.99 0.68 5.98 0 7 C0 4.69 0 2.38 0 0 Z " fill="#E3C1C0" transform="translate(139,174)"/>
<path d="M0 0 C2.43757413 -0.02698422 4.87484915 -0.04683099 7.3125 -0.0625 C8.00279297 -0.07087891 8.69308594 -0.07925781 9.40429688 -0.08789062 C12.5483025 -0.10307906 14.99420019 -0.00193327 18 1 C20 4 20 4 19.625 7.1875 C19.315625 8.5796875 19.315625 8.5796875 19 10 C18.01 10.33 17.02 10.66 16 11 C15.67 11.99 15.34 12.98 15 14 C11.92307692 8.58461538 11.92307692 8.58461538 12.3125 5.625 C12.539375 5.08875 12.76625 4.5525 13 4 C12.01 4 11.02 4 10 4 C9.67 5.65 9.34 7.3 9 9 C9.66 9.33 10.32 9.66 11 10 C10.01 10 9.02 10 8 10 C8 7.03 8 4.06 8 1 C5.36 1.33 2.72 1.66 0 2 C0 1.34 0 0.68 0 0 Z " fill="#C7C7C7" transform="translate(141,299)"/>
<path d="M0 0 C0.99 0.33 1.98 0.66 3 1 C3 3.64 3 6.28 3 9 C3.99 8.67 4.98 8.34 6 8 C6.33 5.69 6.66 3.38 7 1 C8.32 1 9.64 1 11 1 C11.05399736 2.45792884 11.09279177 3.91642712 11.125 5.375 C11.14820313 6.18710937 11.17140625 6.99921875 11.1953125 7.8359375 C11 10 11 10 9 12 C6.87109375 12.23046875 6.87109375 12.23046875 4.4375 12.1875 C3.22900391 12.17783203 3.22900391 12.17783203 1.99609375 12.16796875 C0 12 0 12 -1 11 C-1.09823937 9.33570949 -1.12973631 7.66718069 -1.125 6 C-1.12757813 5.0925 -1.13015625 4.185 -1.1328125 3.25 C-1 1 -1 1 0 0 Z " fill="#D0D0D0" transform="translate(357,331)"/>
<path d="M0 0 C4.62 0 9.24 0 14 0 C14 1.32 14 2.64 14 4 C12.68 4 11.36 4 10 4 C10 7.3 10 10.6 10 14 C8.35 14 6.7 14 5 14 C5.33 10.7 5.66 7.4 6 4 C4.35 4 2.7 4 1 4 C0.67 2.68 0.34 1.36 0 0 Z " fill="#DFDFDF" transform="translate(117,329)"/>
<path d="M0 0 C0.99 0.33 1.98 0.66 3 1 C3.33 1.99 3.66 2.98 4 4 C6.09228189 5.82130191 6.09228189 5.82130191 8.5625 7.5625 C10.07702143 8.66117779 11.56617913 9.79790775 13 11 C13 11.66 13 12.32 13 13 C10.03 13 7.06 13 4 13 C4 12.34 4 11.68 4 11 C3.34 11 2.68 11 2 11 C0.375 9 0.375 9 -1 7 C-1.66 7.99 -2.32 8.98 -3 10 C-3.33 7.69 -3.66 5.38 -4 3 C-2.1875 1.4375 -2.1875 1.4375 0 0 Z " fill="#D0D0D0" transform="translate(152,308)"/>
<path d="M0 0 C0.51175781 0.2475 1.02351563 0.495 1.55078125 0.75 C-0.8654931 3.77034294 -2.67228715 4.96427419 -6.38671875 5.6875 C-10.63147148 6.55700242 -12.5910298 8.47148914 -15.44921875 11.75 C-16.43921875 12.245 -16.43921875 12.245 -17.44921875 12.75 C-17.44921875 12.09 -17.44921875 11.43 -17.44921875 10.75 C-18.37734375 11.4615625 -18.37734375 11.4615625 -19.32421875 12.1875 C-23.61027551 14.33052838 -27.71522584 14.48342564 -32.44921875 14.75 C-29.54737395 12.53641326 -26.6034961 10.58999512 -23.44921875 8.75 C-24.43921875 8.09 -25.42921875 7.43 -26.44921875 6.75 C-25.27359375 7.08 -24.09796875 7.41 -22.88671875 7.75 C-16.89051463 8.51384766 -12.62693349 5.57016314 -7.67944336 2.55859375 C-2.90496306 -0.29651936 -2.90496306 -0.29651936 0 0 Z " fill="#9E3434" transform="translate(319.44921875,194.25)"/>
<path d="M0 0 C1.921875 0.16015625 1.921875 0.16015625 4 1 C5.265625 2.99609375 5.265625 2.99609375 6.25 5.4375 C6.58515625 6.24058594 6.9203125 7.04367187 7.265625 7.87109375 C8 10 8 10 8 12 C6.35 12 4.7 12 3 12 C3 11.01 3 10.02 3 9 C1.68 9 0.36 9 -1 9 C-1 9.99 -1 10.98 -1 12 C-2.32 12 -3.64 12 -5 12 C-4.37343743 7.73937456 -3.1323664 3.1323664 0 0 Z " fill="#B4B5B4" transform="translate(250,331)"/>
<path d="M0 0 C0.33 0 0.66 0 1 0 C1 13.86 1 27.72 1 42 C-4.625 44.25 -4.625 44.25 -9 43 C-9 42.01 -9 41.02 -9 40 C-6.69 40 -4.38 40 -2 40 C-1.34 34.72 -0.68 29.44 0 24 C-0.66 23.67 -1.32 23.34 -2 23 C-1.67 22.34 -1.34 21.68 -1 21 C-0.84824451 19.40737934 -0.75099675 17.80935144 -0.68359375 16.2109375 C-0.64169922 15.26992187 -0.59980469 14.32890625 -0.55664062 13.359375 C-0.51732422 12.37453125 -0.47800781 11.3896875 -0.4375 10.375 C-0.39431641 9.38242188 -0.35113281 8.38984375 -0.30664062 7.3671875 C-0.20038931 4.91160162 -0.09835036 2.45591297 0 0 Z " fill="#BE3B3C" transform="translate(234,145)"/>
<path d="M0 0 C0 19.8 0 39.6 0 60 C-0.33 60 -0.66 60 -1 60 C-1.495 31.29 -1.495 31.29 -2 2 C-3.98 3.32 -5.96 4.64 -8 6 C-11.875 6.75 -11.875 6.75 -15 7 C-10.60214479 3.13521815 -6.02718405 0 0 0 Z " fill="#792222" transform="translate(236,127)"/>
<path d="M0 0 C1.6396875 0.0928125 1.6396875 0.0928125 3.3125 0.1875 C-0.50362385 3.43941199 -4.92049891 5.30377147 -9.4375 7.375 C-10.62666016 7.92704102 -10.62666016 7.92704102 -11.83984375 8.49023438 C-13.78713272 9.39349492 -15.73705989 10.2910641 -17.6875 11.1875 C-16.6975 12.1775 -15.7075 13.1675 -14.6875 14.1875 C-15.6775 14.8475 -16.6675 15.5075 -17.6875 16.1875 C-19.02367352 15.21221263 -20.3563751 14.23216681 -21.6875 13.25 C-22.80125 12.43208984 -22.80125 12.43208984 -23.9375 11.59765625 C-24.515 11.13230469 -25.0925 10.66695312 -25.6875 10.1875 C-25.6875 9.8575 -25.6875 9.5275 -25.6875 9.1875 C-23.0475 9.1875 -20.4075 9.1875 -17.6875 9.1875 C-17.6875 8.5275 -17.6875 7.8675 -17.6875 7.1875 C-15.15624724 5.76999845 -12.96259226 4.9967348 -10.125 4.25 C-6.74209576 3.5192884 -6.74209576 3.5192884 -5.1875 1.5625 C-3.6875 0.1875 -3.6875 0.1875 0 0 Z " fill="#882523" transform="translate(221.6875,191.8125)"/>
<path d="M0 0 C1.62580966 0.11398665 3.25067157 0.24155659 4.875 0.375 C5.77992188 0.44460937 6.68484375 0.51421875 7.6171875 0.5859375 C10 1 10 1 12 3 C12.33 2.34 12.66 1.68 13 1 C13 1.66 13 2.32 13 3 C14.98 2.67 16.96 2.34 19 2 C19.33 3.65 19.66 5.3 20 7 C20.66 6.67 21.32 6.34 22 6 C22 6.99 22 7.98 22 9 C23.32 9.33 24.64 9.66 26 10 C19.3578391 10.64889496 14.92056956 8.46690063 9.0625 5.5 C8.18787109 5.07074219 7.31324219 4.64148438 6.41210938 4.19921875 C4.26836379 3.14491764 2.13168141 2.07842875 0 1 C0 0.67 0 0.34 0 0 Z " fill="#C8797A" transform="translate(169,248)"/>
<path d="M0 0 C-9.33333333 4.66666667 -18.66666667 9.33333333 -28 14 C-28.75796875 14.41507813 -29.5159375 14.83015625 -30.296875 15.2578125 C-32.74841845 16.32614566 -34.48846446 15.69764876 -37 15 C-27.38461538 10 -27.38461538 10 -24 10 C-23.67 9.01 -23.34 8.02 -23 7 C-20.890625 6.19140625 -20.890625 6.19140625 -18.25 5.5625 C-13.93956388 4.40364875 -11.40965832 2.92256427 -8 0 C-4.6173409 -1.04701353 -3.40552239 -1.13517413 0 0 Z " fill="#D16C6B" transform="translate(334,187)"/>
<path d="M0 0 C0 0.66 0 1.32 0 2 C0.66 2 1.32 2 2 2 C2 11.24 2 20.48 2 30 C1.67 30 1.34 30 1 30 C0.93941406 29.00097656 0.87882813 28.00195312 0.81640625 26.97265625 C0.73261719 25.68230469 0.64882812 24.39195312 0.5625 23.0625 C0.48128906 21.77472656 0.40007812 20.48695313 0.31640625 19.16015625 C0.35080812 16.13976043 0.35080812 16.13976043 -1 15 C-1.04092937 12.66702567 -1.04241723 10.33294775 -1 8 C-0.34 8 0.32 8 1 8 C0.34 7.34 -0.32 6.68 -1 6 C-1.99 6 -2.98 6 -4 6 C-4.33 4.35 -4.66 2.7 -5 1 C-3 0 -3 0 0 0 Z " fill="#BC3936" transform="translate(233,218)"/>
<path d="M0 0 C0.99 0 1.98 0 3 0 C3.33 19.8 3.66 39.6 4 60 C2.02 60.495 2.02 60.495 0 61 C-0.33 60.34 -0.66 59.68 -1 59 C-0.01 59 0.98 59 2 59 C2 39.86 2 20.72 2 1 C1.34 0.67 0.68 0.34 0 0 Z " fill="#762020" transform="translate(233,219)"/>
<path d="M0 0 C4.875 0.875 4.875 0.875 6 2 C6.09900199 3.97712807 6.12970773 5.95790038 6.125 7.9375 C6.12757813 9.01902344 6.13015625 10.10054688 6.1328125 11.21484375 C6 14 6 14 5 16 C3.35 16 1.7 16 0 16 C0 15.34 0 14.68 0 14 C0.66 14 1.32 14 2 14 C1.85866501 12.22880197 1.71176792 10.45804713 1.5625 8.6875 C1.48128906 7.70136719 1.40007812 6.71523438 1.31640625 5.69921875 C1.08187441 2.90624401 1.08187441 2.90624401 0 0 Z " fill="#909190" transform="translate(394,329)"/>
<path d="M0 0 C1.43655854 -0.08131463 2.8744483 -0.13933559 4.3125 -0.1875 C5.51326172 -0.23970703 5.51326172 -0.23970703 6.73828125 -0.29296875 C9 0 9 0 10.77734375 1.2890625 C12.7610536 4.06498874 12.23965852 6.70469532 12 10 C11.67 10.66 11.34 11.32 11 12 C7.37 12 3.74 12 0 12 C0 11.67 0 11.34 0 11 C3.3 11 6.6 11 10 11 C9.67 10.34 9.34 9.68 9 9 C7.02 9 5.04 9 3 9 C3 8.01 3 7.02 3 6 C5.31 6.33 7.62 6.66 10 7 C9.67 6.01 9.34 5.02 9 4 C7.68 4 6.36 4 5 4 C5.33 3.01 5.66 2.02 6 1 C4.02 1 2.04 1 0 1 C0 0.67 0 0.34 0 0 Z " fill="#8A8B8B" transform="translate(371,331)"/>
<path d="M0 0 C0.33 0 0.66 0 1 0 C1 10.23 1 20.46 1 31 C2.32 31 3.64 31 5 31 C5 30.34 5 29.68 5 29 C6.32 29 7.64 29 9 29 C9 28.34 9 27.68 9 27 C9.99 27 10.98 27 12 27 C12 26.34 12 25.68 12 25 C13.65 25.33 15.3 25.66 17 26 C14.3953806 27.73641293 11.84127604 29.19591518 9.0625 30.625 C8.20785156 31.07101562 7.35320312 31.51703125 6.47265625 31.9765625 C4 33 4 33 0 33 C0 22.11 0 11.22 0 0 Z " fill="#7F3434" transform="translate(261,248)"/>
<path d="M0 0 C0.99 1.32 1.98 2.64 3 4 C5.09415804 4.79623822 5.09415804 4.79623822 7 5 C7 5.66 7 6.32 7 7 C7.99 6.67 8.98 6.34 10 6 C11.5 7.375 11.5 7.375 13 9 C13 9.66 13 10.32 13 11 C10.625 11.1875 10.625 11.1875 8 11 C7.34 10.01 6.68 9.02 6 8 C5.01 9.485 5.01 9.485 4 11 C2.68 11 1.36 11 0 11 C0 7.37 0 3.74 0 0 Z " fill="#878888" transform="translate(231,332)"/>
<path d="M0 0 C2.97 0 5.94 0 9 0 C9 0.66 9 1.32 9 2 C7.35 2 5.7 2 4 2 C4 2.99 4 3.98 4 5 C5.98 4.67 7.96 4.34 10 4 C10.33 4.66 10.66 5.32 11 6 C8.69 6.33 6.38 6.66 4 7 C4 8.65 4 10.3 4 12 C3.01 12 2.02 12 1 12 C0.67 8.04 0.34 4.08 0 0 Z " fill="#DADADA" transform="translate(171,330)"/>
<path d="M0 0 C-0.61488281 0.30292969 -1.22976562 0.60585937 -1.86328125 0.91796875 C-8.17568194 4.15133077 -8.17568194 4.15133077 -12 10 C-13.65 9.67 -15.3 9.34 -17 9 C-17.33 7.68 -17.66 6.36 -18 5 C-16.25197854 4.18325204 -14.50149811 3.37176549 -12.75 2.5625 C-11.77546875 2.11003906 -10.8009375 1.65757812 -9.796875 1.19140625 C-3.92703863 -1.30901288 -3.92703863 -1.30901288 0 0 Z " fill="#9C0506" transform="translate(160,166)"/>
<path d="M0 0 C2 2 2 2 2.1953125 4.6015625 C2.17210937 5.59929687 2.14890625 6.59703125 2.125 7.625 C2.10695313 8.62789063 2.08890625 9.63078125 2.0703125 10.6640625 C2.03550781 11.82035156 2.03550781 11.82035156 2 13 C2.99 13 3.98 13 5 13 C5 13.99 5 14.98 5 16 C2.36 16 -0.28 16 -3 16 C-2.67 15.34 -2.34 14.68 -2 14 C-1.68416554 10.62671248 -1.48866238 7.25265635 -1.28125 3.87109375 C-1 1 -1 1 0 0 Z " fill="#CFD0D0" transform="translate(333,305)"/>
<path d="M0 0 C0.144375 0.598125 0.28875 1.19625 0.4375 1.8125 C0.8872439 3.56150404 1.42892341 5.28677023 2 7 C2.66 7.33 3.32 7.66 4 8 C-0.97306516 7.50269348 -4.63799813 6.44697666 -9 4 C-9 3.01 -9 2.02 -9 1 C-5.8035914 -0.06546953 -3.34252724 -0.07427838 0 0 Z " fill="#B48F8F" transform="translate(168,240)"/>
<path d="M0 0 C4.8274799 1.41292095 8.7162359 3.42974154 13 6 C13 6.99 13 7.98 13 9 C12.21625 9.144375 11.4325 9.28875 10.625 9.4375 C8.03578982 9.87798925 8.03578982 9.87798925 6 11 C5 8 5 8 5 7 C4.34 7 3.68 7 3 7 C1.79371992 4.66785852 0.8345262 2.50357861 0 0 Z " fill="#BD8181" transform="translate(311,149)"/>
<path d="M0 0 C1.22589844 0.15275391 1.22589844 0.15275391 2.4765625 0.30859375 C3.41628906 0.43427734 3.41628906 0.43427734 4.375 0.5625 C4.375 2.8725 4.375 5.1825 4.375 7.5625 C3.385 7.5625 2.395 7.5625 1.375 7.5625 C0.715 6.5725 0.055 5.5825 -0.625 4.5625 C-3.20880177 4.31219023 -3.20880177 4.31219023 -5.625 4.5625 C-5.955 3.2425 -6.285 1.9225 -6.625 0.5625 C-4.10446405 -0.69776798 -2.7707902 -0.35624445 0 0 Z " fill="#B2B2B2" transform="translate(231.625,298.4375)"/>
<path d="M0 0 C0.99 0.33 1.98 0.66 3 1 C3.05399736 2.45792884 3.09279177 3.91642712 3.125 5.375 C3.14820313 6.18710937 3.17140625 6.99921875 3.1953125 7.8359375 C3 10 3 10 1 12 C0.01 12 -0.98 12 -2 12 C-2 11.34 -2 10.68 -2 10 C-2.99 9.67 -3.98 9.34 -5 9 C-4.01 8.67 -3.02 8.34 -2 8 C-1.855625 6.865625 -1.71125 5.73125 -1.5625 4.5625 C-1 1 -1 1 0 0 Z " fill="#9D9E9D" transform="translate(365,331)"/>
<path d="M0 0 C1.98 0 3.96 0 6 0 C6 0.66 6 1.32 6 2 C7.299375 2.12375 8.59875 2.2475 9.9375 2.375 C12.15234375 2.5859375 12.15234375 2.5859375 14 3 C14.33 3.66 14.66 4.32 15 5 C15.99 5.33 16.98 5.66 18 6 C18 6.99 18 7.98 18 9 C11.48180123 7.10463724 5.82185199 4.4821006 0 1 C0 0.67 0 0.34 0 0 Z " fill="#8E2222" transform="translate(213,269)"/>
<path d="M0 0 C4.62 2.31 9.24 4.62 14 7 C14 7.66 14 8.32 14 9 C14.66 9 15.32 9 16 9 C16 10.32 16 11.64 16 13 C14.35 12.67 12.7 12.34 11 12 C11 10.35 11 8.7 11 7 C10.05125 6.855625 9.1025 6.71125 8.125 6.5625 C5 6 5 6 3 5 C3 4.34 3 3.68 3 3 C2.01 3 1.02 3 0 3 C0 2.01 0 1.02 0 0 Z " fill="#8B5353" transform="translate(324,155)"/>
<path d="M0 0 C1.98 0.495 1.98 0.495 4 1 C3.67 4.63 3.34 8.26 3 12 C1.68 12 0.36 12 -1 12 C-1.02687279 10.18757948 -1.04633715 8.37504767 -1.0625 6.5625 C-1.07410156 5.55316406 -1.08570313 4.54382813 -1.09765625 3.50390625 C-1 1 -1 1 0 0 Z " fill="#919291" transform="translate(293,331)"/>
<path d="M0 0 C1.22589844 0.15275391 1.22589844 0.15275391 2.4765625 0.30859375 C3.41628906 0.43427734 3.41628906 0.43427734 4.375 0.5625 C4.375 2.8725 4.375 5.1825 4.375 7.5625 C3.385 7.5625 2.395 7.5625 1.375 7.5625 C0.715 6.5725 0.055 5.5825 -0.625 4.5625 C-1.945 4.5625 -3.265 4.5625 -4.625 4.5625 C-4.625 3.5725 -4.625 2.5825 -4.625 1.5625 C-5.285 1.2325 -5.945 0.9025 -6.625 0.5625 C-4.10446405 -0.69776798 -2.7707902 -0.35624445 0 0 Z " fill="#BCBCBC" transform="translate(265.625,298.4375)"/>
<path d="M0 0 C0.52207031 0.22945312 1.04414063 0.45890625 1.58203125 0.6953125 C-1.37143083 4.3871401 -3.82192375 5.12842316 -8.37890625 6.05859375 C-11.79090988 7.12402783 -13.85295708 9.25855141 -16.41796875 11.6953125 C-16.3125 9.4375 -16.3125 9.4375 -15.41796875 6.6953125 C-12.6171875 4.640625 -12.6171875 4.640625 -9.10546875 2.8203125 C-7.95433594 2.20414063 -6.80320312 1.58796875 -5.6171875 0.953125 C-2.41796875 -0.3046875 -2.41796875 -0.3046875 0 0 Z " fill="#C13A39" transform="translate(319.41796875,194.3046875)"/>
<path d="M0 0 C0.99 0 1.98 0 3 0 C6 3.33333333 6 3.33333333 6 6 C7.32 6 8.64 6 10 6 C10 6.66 10 7.32 10 8 C6.7 8 3.4 8 0 8 C0 5.36 0 2.72 0 0 Z " fill="#B3B3B3" transform="translate(255,313)"/>
<path d="M0 0 C0.66 0.33 1.32 0.66 2 1 C1.34 1.66 0.68 2.32 0 3 C0 3.99 0 4.98 0 6 C0.66 5.34 1.32 4.68 2 4 C2.33 4.99 2.66 5.98 3 7 C5.01508358 7.73323796 5.01508358 7.73323796 7 8 C6.67 8.33 6.34 8.66 6 9 C7.32 9.66 8.64 10.32 10 11 C5.59787148 12.02375082 3.04948031 12.08258987 -1 10 C-2 9 -2 9 -2.1875 5.5625 C-2 2 -2 2 0 0 Z " fill="#9C9C9C" transform="translate(218,332)"/>
<path d="M0 0 C-0.33 0.99 -0.66 1.98 -1 3 C-1.99 3 -2.98 3 -4 3 C-4 3.66 -4 4.32 -4 5 C-8.74354436 7.22656164 -12.72250715 8.46148032 -18 9 C-16.35136874 5.70273748 -12.79189039 4.84209148 -9.5625 3.375 C-8.52125977 2.88773438 -8.52125977 2.88773438 -7.45898438 2.390625 C-2.27092634 0 -2.27092634 0 0 0 Z " fill="#91383A" transform="translate(287,209)"/>
<path d="M0 0 C0 5.61 0 11.22 0 17 C-1.88343932 13.23312136 -2.22057835 11.97041037 -2 8 C-2.99 8 -3.98 8 -5 8 C-5.33 6.35 -5.66 4.7 -6 3 C-1.125 0 -1.125 0 0 0 Z " fill="#BC2323" transform="translate(235,128)"/>
<path d="M0 0 C1.670625 0.061875 1.670625 0.061875 3.375 0.125 C3.375 0.785 3.375 1.445 3.375 2.125 C2.1684375 2.434375 2.1684375 2.434375 0.9375 2.75 C-0.3309375 3.430625 -0.3309375 3.430625 -1.625 4.125 C-2.52330839 7.17772465 -2.52330839 7.17772465 -2.625 10.125 C-3.615 9.795 -4.605 9.465 -5.625 9.125 C-5.75 5.75 -5.75 5.75 -5.625 2.125 C-3.625 0.125 -3.625 0.125 0 0 Z " fill="#BDBDBD" transform="translate(320.625,331.875)"/>
<path d="M0 0 C2 2 4 4 6 6 C7.32 6.66 8.64 7.32 10 8 C6.04 8 2.08 8 -2 8 C-2.66 6.68 -3.32 5.36 -4 4 C-2.68 3.67 -1.36 3.34 0 3 C0 2.01 0 1.02 0 0 Z " fill="#C1C1C1" transform="translate(296,313)"/>
<path d="M0 0 C2.43757413 -0.02698422 4.87484915 -0.04683099 7.3125 -0.0625 C8.00279297 -0.07087891 8.69308594 -0.07925781 9.40429688 -0.08789062 C12.5483025 -0.10307906 14.99420019 -0.00193327 18 1 C17.67 1.66 17.34 2.32 17 3 C15.68 2.67 14.36 2.34 13 2 C13 2.66 13 3.32 13 4 C12.01 4 11.02 4 10 4 C9.67 5.65 9.34 7.3 9 9 C9.66 9.33 10.32 9.66 11 10 C10.01 10 9.02 10 8 10 C8 7.03 8 4.06 8 1 C5.36 1.33 2.72 1.66 0 2 C0 1.34 0 0.68 0 0 Z " fill="#8F8F8F" transform="translate(141,299)"/>
<path d="M0 0 C0.66 0 1.32 0 2 0 C2.33 2.31 2.66 4.62 3 7 C3.66 7 4.32 7 5 7 C4.67 7.66 4.34 8.32 4 9 C-0.29 7.02 -4.58 5.04 -9 3 C-9 2.67 -9 2.34 -9 2 C-2.25 1 -2.25 1 0 1 C0 0.67 0 0.34 0 0 Z " fill="#A97978" transform="translate(288,192)"/>
<path d="M0 0 C0.99 0.33 1.98 0.66 3 1 C3.6875 3.0625 3.6875 3.0625 4 5 C3.34 5 2.68 5 2 5 C2 7.31 2 9.62 2 12 C0.68 11.67 -0.64 11.34 -2 11 C-2 7.7 -2 4.4 -2 1 C-1.34 0.67 -0.68 0.34 0 0 Z " fill="#B0B1B0" transform="translate(261,331)"/>
<path d="M0 0 C0 5.61 0 11.22 0 17 C-0.33 17 -0.66 17 -1 17 C-1.33 12.05 -1.66 7.1 -2 2 C-3.98 3.32 -5.96 4.64 -8 6 C-11.875 6.75 -11.875 6.75 -15 7 C-10.60214479 3.13521815 -6.02718405 0 0 0 Z " fill="#791818" transform="translate(236,127)"/>
<path d="M0 0 C1.32 0.33 2.64 0.66 4 1 C3.67 4.3 3.34 7.6 3 11 C2.34 11 1.68 11 1 11 C0.67 10.01 0.34 9.02 0 8 C-0.66 8 -1.32 8 -2 8 C-1.125 1.125 -1.125 1.125 0 0 Z " fill="#AFAFAF" transform="translate(269,331)"/>
<path d="M0 0 C1.98 0 3.96 0 6 0 C6 1.98 6 3.96 6 6 C3.69 6.33 1.38 6.66 -1 7 C-1.33 6.34 -1.66 5.68 -2 5 C-1.0625 2.375 -1.0625 2.375 0 0 Z " fill="#9C9D9D" transform="translate(386,329)"/>
<path d="M0 0 C0.99 0.33 1.98 0.66 3 1 C2.125 6.875 2.125 6.875 1 8 C-4.52941176 8.23529412 -4.52941176 8.23529412 -7 7 C-7 6.34 -7 5.68 -7 5 C-5.5459375 4.5978125 -5.5459375 4.5978125 -4.0625 4.1875 C-3.051875 3.795625 -2.04125 3.40375 -1 3 C-0.67 2.01 -0.34 1.02 0 0 Z " fill="#B8B8B8" transform="translate(211,335)"/>
<path d="M0 0 C0.99 0 1.98 0 3 0 C3 0.99 3 1.98 3 3 C3.66 3 4.32 3 5 3 C5 3.66 5 4.32 5 5 C5.66 5.33 6.32 5.66 7 6 C6.34 6 5.68 6 5 6 C5 6.66 5 7.32 5 8 C4.34 8 3.68 8 3 8 C2.67 8.99 2.34 9.98 2 11 C1.34 11 0.68 11 0 11 C0 7.37 0 3.74 0 0 Z " fill="#C9CBCA" transform="translate(277,331)"/>
<path d="M0 0 C4.62 0 9.24 0 14 0 C14 1.32 14 2.64 14 4 C12.68 4 11.36 4 10 4 C10 7.3 10 10.6 10 14 C8.35 14 6.7 14 5 14 C5.33 13.34 5.66 12.68 6 12 C6.99 12.33 7.98 12.66 9 13 C9 9.7 9 6.4 9 3 C9.99 2.67 10.98 2.34 12 2 C8.37 1.67 4.74 1.34 1 1 C0.67 1.66 0.34 2.32 0 3 C0 2.01 0 1.02 0 0 Z " fill="#626262" transform="translate(117,329)"/>
<path d="M0 0 C3.65938172 1.43164111 7.23988068 2.98934296 10.8125 4.625 C12.27623047 5.29402344 12.27623047 5.29402344 13.76953125 5.9765625 C14.50558594 6.31429687 15.24164063 6.65203125 16 7 C13 9 13 9 9.375 8.75 C8.26125 8.5025 7.1475 8.255 6 8 C5.67 7.34 5.34 6.68 5 6 C4.01 5.34 3.02 4.68 2 4 C2 3.34 2 2.68 2 2 C1.34 2 0.68 2 0 2 C0 1.34 0 0.68 0 0 Z " fill="#9F4749" transform="translate(338,162)"/>
<path d="M0 0 C1.32 0.33 2.64 0.66 4 1 C4 4.50935186 3.62457273 7.56484998 3 11 C2.01 11 1.02 11 0 11 C0 7.37 0 3.74 0 0 Z " fill="#CCCECD" transform="translate(300,331)"/>
<path d="M0 0 C0.66 0 1.32 0 2 0 C2 5.94 2 11.88 2 18 C3.98 18.33 5.96 18.66 8 19 C8 18.34 8 17.68 8 17 C8.99 17.33 9.98 17.66 11 18 C11 18.66 11 19.32 11 20 C7.04 20 3.08 20 -1 20 C-0.505 18.515 -0.505 18.515 0 17 C0.07973476 15.66474283 0.10771338 14.32587917 0.09765625 12.98828125 C0.09443359 12.23095703 0.09121094 11.47363281 0.08789062 10.69335938 C0.07532227 9.51483398 0.07532227 9.51483398 0.0625 8.3125 C0.05798828 7.51521484 0.05347656 6.71792969 0.04882812 5.89648438 C0.0370585 3.93095743 0.01912348 1.96546915 0 0 Z " fill="#7B7B7B" transform="translate(142,301)"/>
<path d="M0 0 C0.99 0.33 1.98 0.66 3 1 C3 1.66 3 2.32 3 3 C2.01 3.33 1.02 3.66 0 4 C0.99 4.99 1.98 5.98 3 7 C2.01 7.66 1.02 8.32 0 9 C-1.33617352 8.02471263 -2.6688751 7.04466681 -4 6.0625 C-4.7425 5.51722656 -5.485 4.97195312 -6.25 4.41015625 C-6.8275 3.94480469 -7.405 3.47945312 -8 3 C-8 2.67 -8 2.34 -8 2 C-5.36 2 -2.72 2 0 2 C0 1.34 0 0.68 0 0 Z " fill="#9D2A2B" transform="translate(204,199)"/>
<path d="M0 0 C1.58628608 0.59637091 3.16892059 1.20245925 4.75 1.8125 C5.63171875 2.14894531 6.5134375 2.48539063 7.421875 2.83203125 C9.93039808 3.96846822 11.87279005 5.26542927 14 7 C13.67 7.99 13.34 8.98 13 10 C13 9.34 13 8.68 13 8 C11.35 8.33 9.7 8.66 8 9 C8 8.01 8 7.02 8 6 C7.34 6 6.68 6 6 6 C6 5.34 6 4.68 6 4 C4.35 3.67 2.7 3.34 1 3 C0.67 2.01 0.34 1.02 0 0 Z " fill="#DEA2A1" transform="translate(170,189)"/>
<path d="M0 0 C1.65 0 3.3 0 5 0 C5 0.66 5 1.32 5 2 C4.01 2.495 4.01 2.495 3 3 C2.60740407 5.78466652 2.60740407 5.78466652 2.5 9 C2.34375 12.3125 2.34375 12.3125 2 15 C1.01 15.495 1.01 15.495 0 16 C0 10.72 0 5.44 0 0 Z " fill="#F5F5F5" transform="translate(306,300)"/>
<path d="M0 0 C0 1.65 0 3.3 0 5 C-2.78823655 6.0326802 -3.8677274 6.04509293 -6.75 5.0625 C-7.4925 4.711875 -8.235 4.36125 -9 4 C-9 3.34 -9 2.68 -9 2 C-5.86501708 0.14223235 -3.62528568 -0.20140476 0 0 Z " fill="#BEB3B4" transform="translate(151,232)"/>
<path d="M0 0 C0.66 0.33 1.32 0.66 2 1 C-0.20330013 4.99348149 -3.00415708 6.09631886 -7.0625 7.6796875 C-9 8 -9 8 -12 6 C-10.04669132 4.96958487 -8.08718472 3.9509107 -6.125 2.9375 C-5.03445312 2.36902344 -3.94390625 1.80054688 -2.8203125 1.21484375 C-1.42425781 0.61349609 -1.42425781 0.61349609 0 0 Z " fill="#9A0606" transform="translate(194,146)"/>
<path d="M0 0 C0 0.99 0 1.98 0 3 C-1.91040052 3.8680908 -3.82860737 4.71901783 -5.75 5.5625 C-6.81734375 6.03816406 -7.8846875 6.51382813 -8.984375 7.00390625 C-11.98369837 7.9946154 -13.13421241 8.16161779 -16 7 C-13.71070947 5.82845707 -11.41881638 4.66261926 -9.125 3.5 C-8.47402344 3.16613281 -7.82304687 2.83226562 -7.15234375 2.48828125 C-2.2265625 0 -2.2265625 0 0 0 Z " fill="#750C0B" transform="translate(212,138)"/>
<path d="M0 0 C0.33 0.99 0.66 1.98 1 3 C1.99 3.33 2.98 3.66 4 4 C4 4.99 4 5.98 4 7 C0.04 7 -3.92 7 -8 7 C-8 6.67 -8 6.34 -8 6 C-5.69 6 -3.38 6 -1 6 C-1.33 5.34 -1.66 4.68 -2 4 C-2.99 4 -3.98 4 -5 4 C-5 3.34 -5 2.68 -5 2 C-3.68 2 -2.36 2 -1 2 C-0.67 1.34 -0.34 0.68 0 0 Z " fill="#797979" transform="translate(157,336)"/>
<path d="M0 0 C1.65 0 3.3 0 5 0 C4.01 1.485 4.01 1.485 3 3 C1.68 3 0.36 3 -1 3 C-1 3.66 -1 4.32 -1 5 C-5.95 6.485 -5.95 6.485 -11 8 C-7.50912907 3.9957657 -5.35048061 2.37328935 0 2 C0 1.34 0 0.68 0 0 Z " fill="#CE4F4E" transform="translate(345,178)"/>
<path d="M0 0 C0.763125 0.5775 1.52625 1.155 2.3125 1.75 C2.3125 2.74 2.3125 3.73 2.3125 4.75 C0.9925 4.75 -0.3275 4.75 -1.6875 4.75 C-2.3475 3.76 -3.0075 2.77 -3.6875 1.75 C-4.0175 2.74 -4.3475 3.73 -4.6875 4.75 C-6.3375 4.75 -7.9875 4.75 -9.6875 4.75 C-9.3575 3.1 -9.0275 1.45 -8.6875 -0.25 C-8.3575 1.07 -8.0275 2.39 -7.6875 3.75 C-7.0275 3.75 -6.3675 3.75 -5.6875 3.75 C-5.6875 2.43 -5.6875 1.11 -5.6875 -0.25 C-2.6875 -1.25 -2.6875 -1.25 0 0 Z " fill="#7F7F7F" transform="translate(195.6875,338.25)"/>
<path d="M0 0 C1.32 0.33 2.64 0.66 4 1 C3.67 4.3 3.34 7.6 3 11 C2.34 11 1.68 11 1 11 C1 9.02 1 7.04 1 5 C0.01 5 -0.98 5 -2 5 C-1.34 3.35 -0.68 1.7 0 0 Z " fill="#CDCECD" transform="translate(286,331)"/>
<path d="M0 0 C3.3 0 6.6 0 10 0 C9.67 0.66 9.34 1.32 9 2 C7.35 1.67 5.7 1.34 4 1 C4 6.61 4 12.22 4 18 C3.34 17.67 2.68 17.34 2 17 C2.33 12.38 2.66 7.76 3 3 C2.01 2.67 1.02 2.34 0 2 C0 1.34 0 0.68 0 0 Z " fill="#9A9A9A" transform="translate(302,299)"/>
<path d="M0 0 C0 0.66 0 1.32 0 2 C-0.99 2 -1.98 2 -3 2 C-3 2.66 -3 3.32 -3 4 C-4.32 4 -5.64 4 -7 4 C-7 4.66 -7 5.32 -7 6 C-7.99 6 -8.98 6 -10 6 C-10 4.35 -10 2.7 -10 1 C-6.61981469 -0.04005702 -3.5219721 -0.08004482 0 0 Z " fill="#C22D2D" transform="translate(273,273)"/>
<path d="M0 0 C2.875 0.6875 2.875 0.6875 6 2 C7.25 4.5625 7.25 4.5625 8 7 C8.66 7.33 9.32 7.66 10 8 C8.68 8 7.36 8 6 8 C5.34 6.68 4.68 5.36 4 4 C3.01 4 2.02 4 1 4 C0.67 2.68 0.34 1.36 0 0 Z " fill="#B06062" transform="translate(207,206)"/>
<path d="M0 0 C3.63 0 7.26 0 11 0 C11 0.66 11 1.32 11 2 C10.01 2.495 10.01 2.495 9 3 C8.53348793 5.12576782 8.53348793 5.12576782 8.375 7.5625 C8.30023438 8.38878906 8.22546875 9.21507812 8.1484375 10.06640625 C8.09945313 10.70449219 8.05046875 11.34257812 8 12 C7.67 12 7.34 12 7 12 C6.67 8.37 6.34 4.74 6 1 C4.02 1.66 2.04 2.32 0 3 C0 2.01 0 1.02 0 0 Z " fill="#7D7D7D" transform="translate(289,299)"/>
<path d="M0 0 C-2.45404224 1.19716659 -4.91251679 2.3829346 -7.375 3.5625 C-8.42300781 4.07586914 -8.42300781 4.07586914 -9.4921875 4.59960938 C-11.30052216 5.46030712 -13.14851956 6.23652436 -15 7 C-15.66 6.67 -16.32 6.34 -17 6 C-15.75 4.5 -15.75 4.5 -14 3 C-12.68 3 -11.36 3 -10 3 C-9.67 2.01 -9.34 1.02 -9 0 C-5.5657338 -0.85856655 -3.38317487 -0.97591583 0 0 Z " fill="#731012" transform="translate(309,260)"/>
<path d="M0 0 C0.99 0 1.98 0 3 0 C6 3.33333333 6 3.33333333 6 6 C7.65 6 9.3 6 11 6 C11 6.33 11 6.66 11 7 C3.25 7.125 3.25 7.125 1 6 C0.375 2.9375 0.375 2.9375 0 0 Z " fill="#CFCFCF" transform="translate(221,313)"/>
<path d="M0 0 C3.5875213 1.33250791 6.8364623 2.830717 10 5 C10 5.66 10 6.32 10 7 C6.98968256 7.93423645 6.13349732 8.04449911 3 7 C3 5.68 3 4.36 3 3 C2.34 3 1.68 3 1 3 C0.67 2.01 0.34 1.02 0 0 Z " fill="#DEB8B6" transform="translate(160,184)"/>
<path d="M0 0 C1.48484412 0.39595843 2.9628831 0.81750706 4.4375 1.25 C5.26121094 1.48203125 6.08492187 1.7140625 6.93359375 1.953125 C9 3 9 3 9.78515625 5.109375 C9.85605469 5.73328125 9.92695313 6.3571875 10 7 C10.66 7 11.32 7 12 7 C11.67 7.99 11.34 8.98 11 10 C11 9.34 11 8.68 11 8 C10.34 8 9.68 8 9 8 C8.34 7.34 7.68 6.68 7 6 C4.68351201 4.96157435 2.35096976 3.9578025 0 3 C0 2.01 0 1.02 0 0 Z " fill="#E2C3C2" transform="translate(151,180)"/>
<path d="M0 0 C0.99 1.32 1.98 2.64 3 4 C3.66 4.66 4.32 5.32 5 6 C4.625 8.625 4.625 8.625 4 11 C2.68 11 1.36 11 0 11 C0 7.37 0 3.74 0 0 Z " fill="#999A9A" transform="translate(231,332)"/>
<path d="M0 0 C1.98 0.495 1.98 0.495 4 1 C4 5.29 4 9.58 4 14 C2.35 14 0.7 14 -1 14 C-0.01 13.67 0.98 13.34 2 13 C1.67 9.7 1.34 6.4 1 3 C0.34 3.66 -0.32 4.32 -1 5 C-0.67 3.35 -0.34 1.7 0 0 Z " fill="#878888" transform="translate(349,329)"/>
<path d="M0 0 C0.33 0 0.66 0 1 0 C1.33 7.59 1.66 15.18 2 23 C0.68 23.33 -0.64 23.66 -2 24 C-2.33 23.34 -2.66 22.68 -3 22 C-2.01 22 -1.02 22 0 22 C0 14.74 0 7.48 0 0 Z " fill="#771718" transform="translate(235,256)"/>
<path d="M0 0 C6.625 -0.25 6.625 -0.25 10 2 C9.01 3.485 9.01 3.485 8 5 C5.375 5.1875 5.375 5.1875 3 5 C3.33 3.68 3.66 2.36 4 1 C2.68 0.67 1.36 0.34 0 0 Z " fill="#959595" transform="translate(232,331)"/>
<path d="M0 0 C0.66 0.66 1.32 1.32 2 2 C2.99 1.34 3.98 0.68 5 0 C5.33 1.65 5.66 3.3 6 5 C3.36 5 0.72 5 -2 5 C-1.125 1.125 -1.125 1.125 0 0 Z " fill="#CECECE" transform="translate(110,330)"/>
<path d="M0 0 C-3.96 1.98 -7.92 3.96 -12 6 C-12.33 5.34 -12.66 4.68 -13 4 C-12.01 4 -11.02 4 -10 4 C-10 3.01 -10 2.02 -10 1 C-5.8922935 -0.58706842 -4.40767604 -1.10191901 0 0 Z " fill="#79181A" transform="translate(291,268)"/>
<path d="M0 0 C-2.8125 2.0625 -2.8125 2.0625 -6 4 C-6.99 3.67 -7.98 3.34 -9 3 C-7 0 -7 0 -4.5 -0.75 C-2 -1 -2 -1 0 0 Z M-11 4 C-10.34 4.33 -9.68 4.66 -9 5 C-9.66 6.98 -10.32 8.96 -11 11 C-11.33 11 -11.66 11 -12 11 C-12.04254356 9.00045254 -12.04080783 6.99958364 -12 5 C-11.67 4.67 -11.34 4.34 -11 4 Z " fill="#C14C4D" transform="translate(275,218)"/>
<path d="M0 0 C0 0.66 0 1.32 0 2 C0.66 2 1.32 2 2 2 C2 3.32 2 4.64 2 6 C0.02 6 -1.96 6 -4 6 C-4.33 4.35 -4.66 2.7 -5 1 C-3 0 -3 0 0 0 Z " fill="#BB4245" transform="translate(233,218)"/>
<path d="M0 0 C-1.93625098 0.98163422 -3.87404539 1.96022454 -5.8125 2.9375 C-7.43091797 3.75541016 -7.43091797 3.75541016 -9.08203125 4.58984375 C-12 6 -12 6 -15 7 C-15 6.34 -15 5.68 -15 5 C-14.401875 4.731875 -13.80375 4.46375 -13.1875 4.1875 C-10.96987874 3.13646963 -10.96987874 3.13646963 -9.5625 1.4375 C-6.55593407 -1.32854065 -3.72097109 -1.2403237 0 0 Z " fill="#CF5856" transform="translate(334,187)"/>
<path d="M0 0 C2.64 0 5.28 0 8 0 C7.67 1.65 7.34 3.3 7 5 C5.02 5 3.04 5 1 5 C1.33 4.34 1.66 3.68 2 3 C1.34 2.01 0.68 1.02 0 0 Z " fill="#D0D1D1" transform="translate(221,337)"/>
<path d="M0 0 C0.33 0 0.66 0 1 0 C1 1.65 1 3.3 1 5 C0.01 5 -0.98 5 -2 5 C-2.33 5.99 -2.66 6.98 -3 8 C-3.33 8.99 -3.66 9.98 -4 11 C-5.32 10.67 -6.64 10.34 -8 10 C-7.01 10 -6.02 10 -5 10 C-5.061875 9.05125 -5.12375 8.1025 -5.1875 7.125 C-5.125625 6.09375 -5.06375 5.0625 -5 4 C-4.01 3.34 -3.02 2.68 -2 2 C-1.67 2.33 -1.34 2.66 -1 3 C-0.67 2.01 -0.34 1.02 0 0 Z " fill="#828282" transform="translate(308,332)"/>
<path d="M0 0 C3.63 0 7.26 0 11 0 C11 1.32 11 2.64 11 4 C8.36 4.33 5.72 4.66 3 5 C3 4.34 3 3.68 3 3 C4.65 2.67 6.3 2.34 8 2 C5.36 1.67 2.72 1.34 0 1 C0 0.67 0 0.34 0 0 Z " fill="#89898A" transform="translate(149,331)"/>
<path d="M0 0 C0.33 0.66 0.66 1.32 1 2 C1.66 1.67 2.32 1.34 3 1 C3 1.99 3 2.98 3 4 C4.32 4.33 5.64 4.66 7 5 C1.73946963 5.31563182 -1.44573816 4.66590937 -6 2 C-2.25 0 -2.25 0 0 0 Z " fill="#A56161" transform="translate(188,253)"/>
<path d="M0 0 C2 2 2 2 2.1953125 5.9140625 C2.18200376 7.48449351 2.15813602 9.05486221 2.125 10.625 C2.11597656 11.42679687 2.10695312 12.22859375 2.09765625 13.0546875 C2.07406223 15.03658523 2.03819065 17.01832981 2 19 C1.67 19 1.34 19 1 19 C1 15.04 1 11.08 1 7 C0.34 7 -0.32 7 -1 7 C-1.04254356 5.00045254 -1.04080783 2.99958364 -1 1 C-0.67 0.67 -0.34 0.34 0 0 Z " fill="#B92826" transform="translate(233,246)"/>
<path d="M0 0 C2.4294516 3.6441774 2.16179575 5.71241272 2 10 C1.01 10 0.02 10 -1 10 C-1.02689216 8.52093108 -1.04634621 7.04172517 -1.0625 5.5625 C-1.07410156 4.73878906 -1.08570313 3.91507812 -1.09765625 3.06640625 C-1 1 -1 1 0 0 Z " fill="#E0E1E0" transform="translate(340,332)"/>
<path d="M0 0 C1.65 0.33 3.3 0.66 5 1 C2.4347341 2.71017726 0.12039035 3.90417811 -2.6875 5.125 C-3.49574219 5.47820312 -4.30398438 5.83140625 -5.13671875 6.1953125 C-5.75160156 6.46085937 -6.36648438 6.72640625 -7 7 C-7 6.01 -7 5.02 -7 4 C-5.68 4 -4.36 4 -3 4 C-3 3.34 -3 2.68 -3 2 C-2.01 2 -1.02 2 0 2 C0 1.34 0 0.68 0 0 Z " fill="#7C1E20" transform="translate(273,273)"/>
<path d="M0 0 C0.66 0.33 1.32 0.66 2 1 C-1.49087093 5.0042343 -3.64951939 6.62671065 -9 7 C-6.25604436 4.05278838 -3.61662784 1.80831392 0 0 Z " fill="#950F10" transform="translate(315,252)"/>
<path d="M0 0 C5.75 -0.125 5.75 -0.125 8 1 C8 2.65 8 4.3 8 6 C6.02 6 4.04 6 2 6 C2.33 5.01 2.66 4.02 3 3 C3.66 3 4.32 3 5 3 C5 2.34 5 1.68 5 1 C3.35 1 1.7 1 0 1 C0 0.67 0 0.34 0 0 Z " fill="#868686" transform="translate(319,331)"/>
<path d="M0 0 C-1.62249941 0.83819158 -3.24808497 1.6704116 -4.875 2.5 C-6.23238281 3.19609375 -6.23238281 3.19609375 -7.6171875 3.90625 C-10 5 -10 5 -12 5 C-11.375 3.125 -11.375 3.125 -10 1 C-6.18941183 -0.73961634 -3.96516557 -1.19298271 0 0 Z " fill="#6E070A" transform="translate(327,251)"/>
<path d="M0 0 C1.98 0.495 1.98 0.495 4 1 C3.67 1.66 3.34 2.32 3 3 C5.97 3.495 5.97 3.495 9 4 C9 4.99 9 5.98 9 7 C5.7 5.35 2.4 3.7 -1 2 C-0.67 1.34 -0.34 0.68 0 0 Z " fill="#A4272A" transform="translate(140,172)"/>
<path d="M0 0 C0.99 0.33 1.98 0.66 3 1 C3 3.64 3 6.28 3 9 C2.67 9 2.34 9 2 9 C2 7.02 2 5.04 2 3 C1.34 3 0.68 3 0 3 C0 5.64 0 8.28 0 11 C-0.33 11 -0.66 11 -1 11 C-1.02688151 9.35425434 -1.04634123 7.70838587 -1.0625 6.0625 C-1.07410156 5.14597656 -1.08570313 4.22945313 -1.09765625 3.28515625 C-1 1 -1 1 0 0 Z " fill="#949796" transform="translate(357,331)"/>
<path d="M0 0 C2 2 2 2 2 6 C0.68 6 -0.64 6 -2 6 C-2.33 4.35 -2.66 2.7 -3 1 C-2.01 0.67 -1.02 0.34 0 0 Z " fill="#CACACA" transform="translate(309,336)"/>
<path d="M0 0 C0.66 0 1.32 0 2 0 C3.35439668 2.70879335 3.06501451 5.00933268 3 8 C1.68 7.67 0.36 7.34 -1 7 C-0.67 4.69 -0.34 2.38 0 0 Z " fill="#B5B5B5" transform="translate(134,335)"/>
<path d="M0 0 C0.99 0 1.98 0 3 0 C3 1.32 3 2.64 3 4 C4.32 4 5.64 4 7 4 C7.33 3.01 7.66 2.02 8 1 C8 2.32 8 3.64 8 5 C2.375 5.25 2.375 5.25 -1 3 C-0.67 2.01 -0.34 1.02 0 0 Z " fill="#767676" transform="translate(134,331)"/>
<path d="M0 0 C0.4125 0.61875 0.825 1.2375 1.25 1.875 C3.05573879 4.06768281 4.4090534 4.92788417 7 6 C5.35 6 3.7 6 2 6 C2 6.66 2 7.32 2 8 C-0.475 7.01 -0.475 7.01 -3 6 C-2.01 5.67 -1.02 5.34 0 5 C0 3.35 0 1.7 0 0 Z " fill="#9D9D9D" transform="translate(186,313)"/>
<path d="M0 0 C3.36704285 -0.2295711 5.41370268 -0.33943529 8.375 1.375 C8.91125 1.91125 9.4475 2.4475 10 3 C10 3.66 10 4.32 10 5 C8.51800098 4.55090939 7.03944764 4.09043436 5.5625 3.625 C4.73878906 3.36976563 3.91507813 3.11453125 3.06640625 2.8515625 C1 2 1 2 0 0 Z " fill="#804146" transform="translate(190,258)"/>
<path d="M0 0 C0.66 0.33 1.32 0.66 2 1 C1.67 1.33 1.34 1.66 1 2 C2.32 2.66 3.64 3.32 5 4 C0.58937864 5.0257259 -1.92630576 5.03684712 -6 3 C-3 1 -3 1 0 0 Z " fill="#838383" transform="translate(223,339)"/>
<path d="M0 0 C0.66 0.33 1.32 0.66 2 1 C1.67 4.63 1.34 8.26 1 12 C1.66 12 2.32 12 3 12 C3 12.66 3 13.32 3 14 C1.35 13.67 -0.3 13.34 -2 13 C-1.34 12.67 -0.68 12.34 0 12 C0 8.04 0 4.08 0 0 Z " fill="#7D7D7D" transform="translate(105,331)"/>
<path d="M0 0 C3.375 -0.125 3.375 -0.125 7 0 C7.66 0.66 8.32 1.32 9 2 C6.69 2 4.38 2 2 2 C2.33 2.99 2.66 3.98 3 5 C2.01 4.67 1.02 4.34 0 4 C0 2.68 0 1.36 0 0 Z " fill="#E5E5E6" transform="translate(150,332)"/>
<path d="M0 0 C2.31 0 4.62 0 7 0 C6.67 1.32 6.34 2.64 6 4 C3.03 3.505 3.03 3.505 0 3 C0 2.01 0 1.02 0 0 Z " fill="#ACACAC" transform="translate(118,330)"/>
<path d="M0 0 C0.928125 0.20625 1.85625 0.4125 2.8125 0.625 C2.4825 1.285 2.1525 1.945 1.8125 2.625 C-0.25390625 3.2578125 -0.25390625 3.2578125 -2.75 3.75 C-3.57628906 3.91757812 -4.40257812 4.08515625 -5.25390625 4.2578125 C-5.89199219 4.37898438 -6.53007812 4.50015625 -7.1875 4.625 C-5.78075725 0.40477175 -4.42930454 -0.52109465 0 0 Z " fill="#B81F1E" transform="translate(290.1875,264.375)"/>
<path d="M0 0 C3.3 0.33 6.6 0.66 10 1 C10.66 2.65 11.32 4.3 12 6 C7.76570244 4.68938409 3.92592596 3.05643741 0 1 C0 0.67 0 0.34 0 0 Z " fill="#966365" transform="translate(169,248)"/>
<path d="M0 0 C0.9075 0.309375 1.815 0.61875 2.75 0.9375 C5.16563338 1.7272263 7.52780285 2.42949297 10 3 C10 3.66 10 4.32 10 5 C3.375 4.25 3.375 4.25 0 2 C0 1.34 0 0.68 0 0 Z " fill="#B20E0E" transform="translate(154,179)"/>
<path d="M0 0 C-3.88309282 3.64775386 -6.71201818 4.58525633 -12 5 C-10.66272409 2.32544817 -9.26711677 2.01118615 -6.5625 0.8125 C-5.75941406 0.44769531 -4.95632812 0.08289063 -4.12890625 -0.29296875 C-2 -1 -2 -1 0 0 Z " fill="#79080B" transform="translate(167,161)"/>
<path d="M0 0 C1.98 0 3.96 0 6 0 C6 1.65 6 3.3 6 5 C4.68 4.67 3.36 4.34 2 4 C2.33 3.67 2.66 3.34 3 3 C2.01 2.67 1.02 2.34 0 2 C0 1.34 0 0.68 0 0 Z " fill="#D5D5D5" transform="translate(320,337)"/>
<path d="M0 0 C2.78637633 4.1795645 1.79562512 6.14668677 1 11 C0.34 10.67 -0.32 10.34 -1 10 C-1.02689216 8.52093108 -1.04634621 7.04172517 -1.0625 5.5625 C-1.07410156 4.73878906 -1.08570313 3.91507812 -1.09765625 3.06640625 C-1 1 -1 1 0 0 Z " fill="#F9FBFA" transform="translate(333,305)"/>
<path d="M0 0 C0.33 0.66 0.66 1.32 1 2 C1.66 2 2.32 2 3 2 C2.67 2.99 2.34 3.98 2 5 C-3.75 3.25 -3.75 3.25 -6 1 C-4.02 0.67 -2.04 0.34 0 0 Z " fill="#947171" transform="translate(285,193)"/>
<path d="M0 0 C1.32 0.33 2.64 0.66 4 1 C4 2.32 4 3.64 4 5 C4.66 5.33 5.32 5.66 6 6 C4.68 6 3.36 6 2 6 C1.34 5.34 0.68 4.68 0 4 C0 2.68 0 1.36 0 0 Z " fill="#C0C3C3" transform="translate(339,329)"/>
<path d="M0 0 C0.66 0.33 1.32 0.66 2 1 C1.38125 1.721875 0.7625 2.44375 0.125 3.1875 C-1.83666353 5.78381938 -2.95316 7.94671666 -4 11 C-5 8 -5 8 -3.6875 4.9375 C-2 2 -2 2 0 0 Z " fill="#9B9B9B" transform="translate(184,300)"/>
<path d="M0 0 C0.66 0.33 1.32 0.66 2 1 C1.0409375 1.7734375 1.0409375 1.7734375 0.0625 2.5625 C-2.55791681 5.65935623 -2.69389817 8.02067623 -3 12 C-3.33 12 -3.66 12 -4 12 C-4.49230769 4.61538462 -4.49230769 4.61538462 -2 1.5 C-1.34 1.005 -0.68 0.51 0 0 Z " fill="#984547" transform="translate(266,218)"/>
<path d="M0 0 C2.0625 0.4375 2.0625 0.4375 4 1 C2.1875 3 2.1875 3 0 5 C-0.99 5 -1.98 5 -3 5 C-1.125 1.125 -1.125 1.125 0 0 Z " fill="#C12F2E" transform="translate(317,194)"/>
<path d="M0 0 C2.64 0 5.28 0 8 0 C7.01 1.485 7.01 1.485 6 3 C3.375 3.1875 3.375 3.1875 1 3 C0.67 2.01 0.34 1.02 0 0 Z " fill="#C62E2C" transform="translate(208,194)"/>
<path d="M0 0 C-3.20336822 2.83374881 -5.78087253 3.5205537 -10 4 C-9.67 3.01 -9.34 2.02 -9 1 C-6.04335481 -0.4783226 -3.25770263 -0.06032783 0 0 Z " fill="#8E2A2C" transform="translate(225,192)"/>
<path d="M0 0 C2.97 0 5.94 0 9 0 C8.67 1.65 8.34 3.3 8 5 C7.01 4.67 6.02 4.34 5 4 C5.33 3.01 5.66 2.02 6 1 C4.02 1 2.04 1 0 1 C0 0.67 0 0.34 0 0 Z " fill="#A7A7AB" transform="translate(371,331)"/>
<path d="M0 0 C0.99 0 1.98 0 3 0 C5 3 5 3 4.625 5.1875 C4.41875 5.785625 4.2125 6.38375 4 7 C3.67 6.01 3.34 5.02 3 4 C2.34 3.67 1.68 3.34 1 3 C0.67 3.66 0.34 4.32 0 5 C0 4.34 0 3.68 0 3 C-0.66 2.67 -1.32 2.34 -2 2 C-1.34 2 -0.68 2 0 2 C0 1.34 0 0.68 0 0 Z " fill="#7B7B7B" transform="translate(210,332)"/>
<path d="M0 0 C0.33 1.32 0.66 2.64 1 4 C-4.75 2.25 -4.75 2.25 -7 0 C-4.3333581 -1.33332095 -2.83319697 -0.67102033 0 0 Z " fill="#BA2A25" transform="translate(195,197)"/>
<path d="M0 0 C0.99 0 1.98 0 3 0 C3 0.66 3 1.32 3 2 C3.66 2 4.32 2 5 2 C5 3.32 5 4.64 5 6 C3.35 5.67 1.7 5.34 0 5 C0 3.35 0 1.7 0 0 Z " fill="#C46266" transform="translate(335,162)"/>
<path d="M0 0 C0.99 0.33 1.98 0.66 3 1 C1.35 2.98 -0.3 4.96 -2 7 C-2.6875 5.1875 -2.6875 5.1875 -3 3 C-1.5625 1.25 -1.5625 1.25 0 0 Z " fill="#D7D7D7" transform="translate(220,332)"/>
<path d="M0 0 C0.33 0 0.66 0 1 0 C1 1.98 1 3.96 1 6 C0.01 6 -0.98 6 -2 6 C-2 5.34 -2 4.68 -2 4 C-2.99 3.67 -3.98 3.34 -5 3 C-3.35 2.67 -1.7 2.34 0 2 C0 1.34 0 0.68 0 0 Z " fill="#BD1716" transform="translate(233,271)"/>
<path d="M0 0 C1.98 0.66 3.96 1.32 6 2 C6 2.99 6 3.98 6 5 C4.35 4.67 2.7 4.34 1 4 C0.67 2.68 0.34 1.36 0 0 Z " fill="#903B3C" transform="translate(224,214)"/>
<path d="M0 0 C2.97 0.99 5.94 1.98 9 3 C8.01 3.99 7.02 4.98 6 6 C3.97945196 4.35830472 1.97956942 2.69088222 0 1 C0 0.67 0 0.34 0 0 Z " fill="#AC5D5E" transform="translate(198,202)"/>
<path d="M0 0 C-5.17578125 3.22265625 -5.17578125 3.22265625 -7 4 C-7.99 3.67 -8.98 3.34 -10 3 C-9 1 -9 1 -5.5625 -0.1875 C-2 -1 -2 -1 0 0 Z " fill="#6C2427" transform="translate(235,188)"/>
<path d="M0 0 C0.99 1.32 1.98 2.64 3 4 C2.01 4.495 2.01 4.495 1 5 C-1.625 4.0625 -1.625 4.0625 -4 3 C-4 2.34 -4 1.68 -4 1 C-2.68 0.67 -1.36 0.34 0 0 Z " fill="#B51919" transform="translate(175,187)"/>
<path d="M0 0 C0.99 1.32 1.98 2.64 3 4 C2.01 4.495 2.01 4.495 1 5 C-1.35981813 4.06421005 -3.69631264 3.06652192 -6 2 C-6 1.67 -6 1.34 -6 1 C-4.02 0.67 -2.04 0.34 0 0 Z " fill="#887779" transform="translate(268,185)"/>
<path d="M0 0 C0.66 0.33 1.32 0.66 2 1 C-0.06756277 3.7972908 -1.14440371 4.02692273 -4.6875 4.6875 C-5.780625 4.790625 -6.87375 4.89375 -8 5 C-6.35197949 1.70395897 -3.32254422 1.22409524 0 0 Z " fill="#6C070A" transform="translate(194,146)"/>
<path d="M0 0 C0.99 0 1.98 0 3 0 C3.33 1.32 3.66 2.64 4 4 C2.35 4 0.7 4 -1 4 C-0.67 2.68 -0.34 1.36 0 0 Z " fill="#929393" transform="translate(254,339)"/>
<path d="M0 0 C0.33 0.66 0.66 1.32 1 2 C1.99 2.33 2.98 2.66 4 3 C4 4.32 4 5.64 4 7 C3.34 7 2.68 7 2 7 C1.67 6.01 1.34 5.02 1 4 C0.34 4 -0.32 4 -1 4 C-0.67 2.68 -0.34 1.36 0 0 Z " fill="#DFE1E0" transform="translate(268,335)"/>
<path d="M0 0 C-0.66 0 -1.32 0 -2 0 C-2 0.66 -2 1.32 -2 2 C-1.01 2 -0.02 2 1 2 C0.67 2.66 0.34 3.32 0 4 C-1.32 4 -2.64 4 -4 4 C-4 3.01 -4 2.02 -4 1 C-4.66 0.67 -5.32 0.34 -6 0 C-3.50907189 -1.24546405 -2.58919267 -0.7767578 0 0 Z " fill="#858585" transform="translate(265,299)"/>
<path d="M0 0 C1.65 0 3.3 0 5 0 C5.33 0.99 5.66 1.98 6 3 C6.33 3.66 6.66 4.32 7 5 C3 5 3 5 1.25 3.625 C0 2 0 2 0 0 Z " fill="#C1585A" transform="translate(197,258)"/>
<path d="M0 0 C-3.44450737 2.29633824 -5.93812283 2.54016485 -10 3 C-7.7846105 -1.43077901 -4.3377361 -1.20492669 0 0 Z " fill="#960707" transform="translate(331,248)"/>
<path d="M0 0 C0.99 0 1.98 0 3 0 C3 0.66 3 1.32 3 2 C3.66 2 4.32 2 5 2 C5 2.66 5 3.32 5 4 C4.01 4.33 3.02 4.66 2 5 C1.34 4.67 0.68 4.34 0 4 C0 2.68 0 1.36 0 0 Z " fill="#DBD8D9" transform="translate(145,179)"/>
<path d="M0 0 C1.65 0 3.3 0 5 0 C4.01 1.485 4.01 1.485 3 3 C1.68 3 0.36 3 -1 3 C-1 3.66 -1 4.32 -1 5 C-1.66 4.67 -2.32 4.34 -3 4 C-2.67 3.34 -2.34 2.68 -2 2 C-1.34 2 -0.68 2 0 2 C0 1.34 0 0.68 0 0 Z " fill="#CD3F3E" transform="translate(345,178)"/>
<path d="M0 0 C3.37462715 0.54723683 5.08235 1.0549 8 3 C5.6875 3.625 5.6875 3.625 3 4 C2.01 3.34 1.02 2.68 0 2 C0 1.34 0 0.68 0 0 Z " fill="#883D3F" transform="translate(346,167)"/>
<path d="M0 0 C5.75 1.75 5.75 1.75 8 4 C6.25 4.75 6.25 4.75 4 5 C1.75 3.125 1.75 3.125 0 1 C0 0.67 0 0.34 0 0 Z " fill="#8B6462" transform="translate(311,149)"/>
<path d="M0 0 C2 1 2 1 2 1 Z M-4 1 C-1.8125 1.3125 -1.8125 1.3125 0 2 C-1.65 3.32 -3.3 4.64 -5 6 C-5.66 5.34 -6.32 4.68 -7 4 C-5.75 2.4375 -5.75 2.4375 -4 1 Z " fill="#B7040A" transform="translate(200,145)"/>
</svg>
